<!-- generated by vm-brand scripts/make-readme-kit.py. Do not edit by hand. -->
<svg xmlns="http://www.w3.org/2000/svg" viewBox="0 0 1280 270" width="1280" height="270" role="img" aria-label="tokens.ts -&gt; OUTPUTS -&gt; APPS. themes default + contrast. modes light, dark, system."><title>tokens.ts -&gt; OUTPUTS -&gt; APPS. themes default + contrast. modes light, dark, system.</title>
<defs>
<radialGradient id="vmp-flow-d-g"><stop offset="0" stop-color="#6366f1" stop-opacity="0.2"/><stop offset="1" stop-color="#6366f1" stop-opacity="0"/></radialGradient>
<pattern id="vmp-flow-d-grid" width="32" height="32" patternUnits="userSpaceOnUse"><path d="M32 0H0V32" fill="none" stroke="#ffffff" stroke-opacity="0.045" stroke-width="1"/></pattern>
<radialGradient id="vmp-flow-d-fade" cx="0.5" cy="0.2" r="0.8"><stop offset="0" stop-color="#fff"/><stop offset="1" stop-color="#fff" stop-opacity="0"/></radialGradient>
<mask id="vmp-flow-d-m"><rect width="1280" height="270" fill="url(#vmp-flow-d-fade)"/></mask>
<clipPath id="vmp-flow-d-clip"><rect width="1280" height="270" rx="28"/></clipPath>
</defs>
<g clip-path="url(#vmp-flow-d-clip)">
<rect width="1280" height="270" fill="#0a0a0b"/>
<rect width="1280" height="270" fill="url(#vmp-flow-d-grid)" mask="url(#vmp-flow-d-m)"/>
<ellipse cx="1024" cy="0" rx="461" ry="220" fill="url(#vmp-flow-d-g)"/>
</g>
<rect x="0.5" y="0.5" width="1279" height="269" rx="27.5" fill="none" stroke="#1f1f23"/>
<path fill="#818cf8" d="M42.2 51.2 41.4 50.9 44.6 41.1 45.4 41.4ZM51.1 51.2 50.3 50.9 53.5 41.1 54.3 41.4ZM70.2 50.2Q68.9 50.2 68.2 49.3Q67.5 48.5 67.5 47V45.3Q67.5 43.8 68.2 43Q68.9 42.1 70.2 42.1Q71.4 42.1 72.2 43Q72.9 43.8 72.9 45.3V47Q72.9 48.5 72.2 49.3Q71.4 50.2 70.2 50.2ZM70.2 49.3Q71.1 49.3 71.5 48.7Q71.9 48.1 71.9 46.9V45.4Q71.9 44.3 71.5 43.7Q71.1 43 70.2 43Q69.3 43 68.8 43.7Q68.4 44.3 68.4 45.4V46.9Q68.4 48.1 68.8 48.7Q69.3 49.3 70.2 49.3ZM76.5 50V42.3H78.4L80.6 49.6H80.7V42.3H81.7V50H79.8L77.6 42.7H77.5V50ZM85.7 50V42.3H90.4V43.2H86.6V45.7H90.3V46.6H86.6V49.1H90.4V50ZM106 50.2Q105.1 50.2 104.4 49.8Q103.7 49.4 103.4 48.8Q103 48.1 103 47.3V47H103.9V47.3Q103.9 48.3 104.5 48.8Q105.1 49.3 106 49.3Q106.9 49.3 107.3 48.9Q107.8 48.5 107.8 47.9V47.8Q107.8 47.2 107.3 46.9Q106.9 46.6 105.9 46.5Q104.7 46.3 104 45.8Q103.3 45.3 103.3 44.3V44.2Q103.3 43.6 103.7 43.1Q104 42.7 104.6 42.4Q105.1 42.1 105.9 42.1Q106.8 42.1 107.4 42.5Q108 42.8 108.3 43.3Q108.6 43.8 108.6 44.5V44.9H107.7V44.5Q107.7 44 107.5 43.7Q107.2 43.3 106.8 43.2Q106.4 43 105.9 43Q105.5 43 105.1 43.1Q104.7 43.3 104.5 43.6Q104.3 43.8 104.3 44.2V44.3Q104.3 44.9 104.8 45.2Q105.3 45.5 106.3 45.7Q107.6 45.8 108.1 46.4Q108.7 46.9 108.7 47.8V47.9Q108.7 48.9 108 49.5Q107.3 50.2 106 50.2ZM114.8 50.2Q113.6 50.2 112.8 49.3Q112.1 48.5 112.1 47V45.3Q112.1 43.8 112.8 43Q113.6 42.1 114.8 42.1Q116.1 42.1 116.8 43Q117.5 43.8 117.5 45.3V47Q117.5 48.5 116.8 49.3Q116.1 50.2 114.8 50.2ZM114.8 49.3Q115.7 49.3 116.2 48.7Q116.6 48.1 116.6 46.9V45.4Q116.6 44.3 116.2 43.7Q115.7 43 114.8 43Q113.9 43 113.5 43.7Q113 44.3 113 45.4V46.9Q113 48.1 113.5 48.7Q113.9 49.3 114.8 49.3ZM123.8 50.2Q122.5 50.2 121.8 49.4Q121.1 48.7 121.1 47.4V42.3H122V47.4Q122 48.3 122.5 48.8Q122.9 49.3 123.8 49.3Q124.6 49.3 125 48.8Q125.5 48.3 125.5 47.4V42.3H126.4V47.4Q126.4 48.7 125.7 49.4Q125 50.2 123.8 50.2ZM130.3 50V42.3H133Q133.8 42.3 134.3 42.6Q134.8 42.9 135.1 43.4Q135.4 43.8 135.4 44.4V44.7Q135.4 45.1 135.1 45.6Q134.9 46 134.4 46.2V46.4Q134.7 46.4 134.9 46.6Q135.1 46.8 135.1 47.2V50H134.2V47.4Q134.2 47.1 134 47Q133.9 46.8 133.6 46.8H131.2V50ZM131.2 46H132.9Q134.4 46 134.4 44.7V44.5Q134.4 43.9 134.1 43.5Q133.7 43.2 132.9 43.2H131.2ZM141.7 50.2Q140.4 50.2 139.7 49.3Q139 48.5 139 47V45.3Q139 43.8 139.7 43Q140.4 42.1 141.7 42.1Q142.5 42.1 143.1 42.5Q143.8 42.9 144.1 43.5Q144.4 44.2 144.4 44.9V45.1H143.4V44.9Q143.4 44.4 143.3 44Q143.1 43.6 142.7 43.3Q142.3 43 141.7 43Q140.8 43 140.3 43.7Q139.9 44.3 139.9 45.4V46.9Q139.9 48.1 140.3 48.7Q140.8 49.3 141.7 49.3Q142.3 49.3 142.7 49Q143.1 48.7 143.3 48.3Q143.4 47.9 143.4 47.4V47.2H144.4V47.4Q144.4 48.1 144.1 48.8Q143.8 49.4 143.1 49.8Q142.5 50.2 141.7 50.2ZM148.2 50V42.3H152.9V43.2H149.1V45.7H152.8V46.6H149.1V49.1H152.9V50ZM158.8 51.3V50.7H159.4Q159.7 50.7 159.7 50.4V50.1Q159.6 50.2 159.5 50.2Q159.2 50.2 158.9 49.9Q158.7 49.7 158.7 49.4Q158.7 49.1 158.9 48.8Q159.2 48.6 159.5 48.6Q159.8 48.6 160 48.8Q160.3 49.1 160.3 49.4V50.5Q160.3 50.8 160 51.1Q159.8 51.3 159.4 51.3ZM176.9 50V43.2H174.6V42.3H180.1V43.2H177.8V50ZM183.7 50V42.3H184.6V45.7H187.9V42.3H188.8V50H187.9V46.6H184.6V50ZM192.8 50V42.3H195.5Q196.3 42.3 196.8 42.6Q197.4 42.9 197.6 43.4Q197.9 43.8 197.9 44.4V44.7Q197.9 45.1 197.6 45.6Q197.4 46 196.9 46.2V46.4Q197.2 46.4 197.4 46.6Q197.6 46.8 197.6 47.2V50H196.7V47.4Q196.7 47.1 196.6 47Q196.4 46.8 196.1 46.8H193.7V50ZM193.7 46H195.4Q197 46 197 44.7V44.5Q197 43.9 196.6 43.5Q196.2 43.2 195.4 43.2H193.7ZM201.8 50V42.3H206.5V43.2H202.7V45.7H206.4V46.6H202.7V49.1H206.5V50ZM210.7 50V42.3H215.4V43.2H211.7V45.7H215.3V46.6H211.7V49.1H215.5V50ZM230.9 50.2Q229.7 50.2 229 49.3Q228.2 48.5 228.2 47V45.3Q228.2 43.8 229 43Q229.7 42.1 230.9 42.1Q232.2 42.1 232.9 43Q233.6 43.8 233.6 45.3V47Q233.6 48.5 232.9 49.3Q232.2 50.2 230.9 50.2ZM230.9 49.3Q231.8 49.3 232.3 48.7Q232.7 48.1 232.7 46.9V45.4Q232.7 44.3 232.3 43.7Q231.8 43 230.9 43Q230 43 229.6 43.7Q229.2 44.3 229.2 45.4V46.9Q229.2 48.1 229.6 48.7Q230 49.3 230.9 49.3ZM239.9 50.2Q238.6 50.2 237.9 49.4Q237.2 48.7 237.2 47.4V42.3H238.2V47.4Q238.2 48.3 238.6 48.8Q239 49.3 239.9 49.3Q240.7 49.3 241.2 48.8Q241.6 48.3 241.6 47.4V42.3H242.5V47.4Q242.5 48.7 241.8 49.4Q241.1 50.2 239.9 50.2ZM248.3 50V43.2H246.1V42.3H251.5V43.2H249.3V50ZM255.3 50V42.3H258.1Q258.8 42.3 259.4 42.6Q259.9 42.9 260.1 43.4Q260.4 43.8 260.4 44.4V44.7Q260.4 45.3 260.1 45.8Q259.9 46.2 259.4 46.5Q258.8 46.8 258.1 46.8H256.2V50ZM256.2 46H257.9Q259.5 46 259.5 44.7V44.5Q259.5 43.9 259.1 43.5Q258.7 43.2 257.9 43.2H256.2ZM266.7 50.2Q265.4 50.2 264.7 49.4Q264 48.7 264 47.4V42.3H264.9V47.4Q264.9 48.3 265.4 48.8Q265.8 49.3 266.7 49.3Q267.5 49.3 267.9 48.8Q268.4 48.3 268.4 47.4V42.3H269.3V47.4Q269.3 48.7 268.6 49.4Q267.9 50.2 266.7 50.2ZM275.1 50V43.2H272.9V42.3H278.3V43.2H276.1V50ZM284.7 50.2Q283.7 50.2 283 49.8Q282.4 49.4 282 48.8Q281.7 48.1 281.7 47.3V47H282.6V47.3Q282.6 48.3 283.1 48.8Q283.7 49.3 284.7 49.3Q285.5 49.3 286 48.9Q286.4 48.5 286.4 47.9V47.8Q286.4 47.2 286 46.9Q285.5 46.6 284.5 46.5Q283.4 46.3 282.7 45.8Q282 45.3 282 44.3V44.2Q282 43.6 282.3 43.1Q282.6 42.7 283.2 42.4Q283.8 42.1 284.5 42.1Q285.4 42.1 286 42.5Q286.6 42.8 286.9 43.3Q287.3 43.8 287.3 44.5V44.9H286.3V44.5Q286.3 44 286.1 43.7Q285.8 43.3 285.4 43.2Q285 43 284.5 43Q284.1 43 283.7 43.1Q283.4 43.3 283.1 43.6Q282.9 43.8 282.9 44.2V44.3Q282.9 44.9 283.4 45.2Q283.9 45.5 285 45.7Q286.2 45.8 286.8 46.4Q287.3 46.9 287.3 47.8V47.9Q287.3 48.9 286.7 49.5Q286 50.2 284.7 50.2Z"/>
<rect x="40.0" y="74" width="368.0" height="120" rx="16" fill="#111113" fill-opacity="0.92" stroke="#26262b" stroke-width="1.2"/>
<rect x="60.0" y="94" width="22" height="2" fill="#6366f1"/>
<path fill="#f4f4f5" d="M65.8 130Q65.1 130 64.7 129.6Q64.2 129.1 64.2 128.4V122.5H61.3V120.1H64.2V116H66.7V120.1H70.3V122.5H66.7V127Q66.7 127.6 67.3 127.6H70V130ZM78.7 130.3Q77.3 130.3 76.1 129.7Q74.9 129.1 74.2 127.9Q73.5 126.8 73.5 125.2V124.9Q73.5 123.3 74.2 122.2Q74.9 121 76.1 120.4Q77.3 119.8 78.7 119.8Q80 119.8 81.2 120.4Q82.4 121 83.1 122.2Q83.8 123.3 83.8 124.9V125.2Q83.8 126.8 83.1 127.9Q82.4 129.1 81.2 129.7Q80 130.3 78.7 130.3ZM78.7 127.9Q79.8 127.9 80.5 127.2Q81.3 126.5 81.3 125.2V124.8Q81.3 123.6 80.5 122.9Q79.8 122.2 78.7 122.2Q77.6 122.2 76.8 122.9Q76 123.6 76 124.8V125.2Q76 126.5 76.8 127.2Q77.6 127.9 78.7 127.9ZM87.4 130V116H90V123.7H90.4L93.1 120.1H95.8V120.2L92.6 124.7V125.1L96.2 129.9V130H93.3L90.4 126.1H90V130ZM103.8 130.3Q102.4 130.3 101.2 129.7Q100.1 129 99.4 127.8Q98.8 126.7 98.8 125V124.9Q98.8 123.4 99.5 122.2Q100.2 121.1 101.3 120.4Q102.4 119.8 103.8 119.8Q105.1 119.8 106 120.2Q106.9 120.7 107.5 121.4Q108.1 122.1 108.4 122.9Q108.7 123.7 108.7 124.5V125.9H101.4Q101.4 126.7 102.1 127.3Q102.8 127.9 103.8 127.9Q104.7 127.9 105.3 127.5Q105.8 127.2 106 126.8L108.1 128Q107.9 128.5 107.4 129Q106.9 129.5 106 129.9Q105.2 130.3 103.8 130.3ZM101.4 123.7H106.1Q106 123 105.4 122.5Q104.7 122.1 103.8 122.1Q102.8 122.1 102.2 122.6Q101.6 123.1 101.4 123.7ZM111.7 130V120.1H114.2V121.6H114.6Q114.9 120.7 115.7 120.3Q116.5 119.8 117.5 119.8Q118.4 119.8 119.2 120.2Q120 120.6 120.5 121.5Q121 122.4 121 123.7V130H118.4V124.4Q118.4 123.3 117.9 122.7Q117.4 122.1 116.5 122.1Q115.4 122.1 114.8 122.8Q114.2 123.6 114.2 124.8V130ZM129.1 130.3Q127.5 130.3 126.6 129.8Q125.6 129.3 125.1 128.6Q124.6 127.8 124.5 127.2L126.8 126.4Q127 127 127.5 127.5Q128 128 129.1 128Q130 128 130.4 127.7Q130.7 127.4 130.7 127.1Q130.7 126.7 130.3 126.4Q129.9 126.1 128.6 126Q126.9 125.8 125.9 125.1Q124.9 124.4 124.9 123V122.8Q124.9 121.9 125.5 121.2Q126 120.5 126.9 120.2Q127.7 119.8 128.7 119.8Q130 119.8 130.8 120.2Q131.6 120.6 132.1 121.2Q132.5 121.7 132.7 122.3L130.5 123.2Q130.3 122.7 129.8 122.4Q129.4 122.1 128.7 122.1Q128.1 122.1 127.8 122.3Q127.4 122.5 127.4 122.9Q127.4 123.4 127.9 123.6Q128.4 123.8 129.7 123.9Q131.3 124.1 132.2 124.8Q133.2 125.6 133.2 126.9V127Q133.2 128.5 132.1 129.4Q131 130.3 129.1 130.3ZM141.4 130.3Q140.6 130.3 140 129.7Q139.5 129.2 139.5 128.4Q139.5 127.6 140 127Q140.6 126.5 141.4 126.5Q142.1 126.5 142.7 127Q143.3 127.6 143.3 128.4Q143.3 129.2 142.7 129.7Q142.1 130.3 141.4 130.3ZM153.5 130Q152.9 130 152.4 129.6Q152 129.1 152 128.4V122.5H149.1V120.1H152V116H154.5V120.1H158.1V122.5H154.5V127Q154.5 127.6 155.1 127.6H157.7V130ZM166.7 130.3Q165.1 130.3 164.2 129.8Q163.2 129.3 162.8 128.6Q162.3 127.8 162.1 127.2L164.4 126.4Q164.6 127 165.1 127.5Q165.6 128 166.7 128Q167.6 128 168 127.7Q168.3 127.4 168.3 127.1Q168.3 126.7 167.9 126.4Q167.5 126.1 166.2 126Q164.6 125.8 163.6 125.1Q162.6 124.4 162.6 123V122.8Q162.6 121.9 163.1 121.2Q163.6 120.5 164.5 120.2Q165.4 119.8 166.3 119.8Q167.6 119.8 168.4 120.2Q169.2 120.6 169.7 121.2Q170.2 121.7 170.4 122.3L168.1 123.2Q167.9 122.7 167.5 122.4Q167 122.1 166.3 122.1Q165.7 122.1 165.4 122.3Q165 122.5 165 122.9Q165 123.4 165.5 123.6Q166 123.8 167.4 123.9Q168.9 124.1 169.8 124.8Q170.8 125.6 170.8 126.9V127Q170.8 128.5 169.7 129.4Q168.6 130.3 166.7 130.3Z"/>
<path fill="#a1a1aa" d="M64.5 160.2Q63.4 160.2 62.5 159.6Q61.7 159.1 61.2 158.2Q60.8 157.2 60.8 156Q60.8 154.7 61.2 153.7Q61.7 152.8 62.5 152.2Q63.4 151.7 64.5 151.7Q65.6 151.7 66.5 152.2Q67.3 152.8 67.8 153.7Q68.2 154.7 68.2 156Q68.2 157.2 67.8 158.2Q67.3 159.1 66.5 159.6Q65.6 160.2 64.5 160.2ZM64.5 159Q65.3 159 65.9 158.6Q66.4 158.1 66.6 157.5Q66.9 156.8 66.9 156Q66.9 155.1 66.6 154.4Q66.4 153.7 65.9 153.3Q65.3 152.9 64.5 152.9Q63.7 152.9 63.1 153.3Q62.6 153.7 62.4 154.4Q62.1 155.1 62.1 156Q62.1 156.8 62.4 157.5Q62.6 158.1 63.1 158.6Q63.7 159 64.5 159ZM71.5 155.1V160H70.2V151.8H71.4L71.4 153.8H71.2Q71.6 152.7 72.3 152.2Q73 151.7 73.9 151.7Q74.8 151.7 75.4 152Q76 152.4 76.4 153.1Q76.7 153.8 76.7 154.8V160H75.4V154.9Q75.4 154 74.9 153.4Q74.4 152.9 73.5 152.9Q72.9 152.9 72.5 153.2Q72 153.4 71.7 153.9Q71.5 154.4 71.5 155.1ZM82.5 160.2Q81.3 160.2 80.4 159.6Q79.5 159.1 79.1 158.2Q78.6 157.2 78.6 156Q78.6 154.7 79.1 153.8Q79.5 152.8 80.4 152.3Q81.2 151.7 82.3 151.7Q83 151.7 83.6 151.9Q84.2 152.1 84.7 152.6Q85.3 153.1 85.6 153.9Q85.9 154.7 85.9 155.8V156.4H79.5V155.2H85.2L84.5 155.6Q84.5 154.8 84.3 154.2Q84 153.6 83.5 153.2Q83 152.9 82.3 152.9Q81.6 152.9 81 153.2Q80.5 153.6 80.2 154.2Q80 154.8 80 155.4V156.2Q80 157.1 80.3 157.7Q80.6 158.4 81.1 158.7Q81.7 159 82.5 159Q82.9 159 83.3 158.9Q83.7 158.7 84 158.4Q84.3 158.2 84.5 157.7L85.7 158.1Q85.5 158.7 85.1 159.2Q84.6 159.6 84 159.9Q83.3 160.2 82.5 160.2ZM94.8 160.2Q93.9 160.2 93.3 159.9Q92.6 159.7 92.2 159.2Q91.8 158.7 91.6 158L92.9 157.7Q93 158.4 93.5 158.7Q94 159 94.7 159Q95.6 159 96.1 158.7Q96.6 158.3 96.6 157.8Q96.6 157.4 96.3 157.1Q96 156.8 95.4 156.7L94.1 156.3Q92.9 156.1 92.4 155.5Q91.9 155 91.9 154.1Q91.9 153.4 92.3 152.9Q92.7 152.3 93.3 152Q94 151.7 94.9 151.7Q95.7 151.7 96.3 152Q96.9 152.2 97.3 152.7Q97.7 153.1 97.8 153.7L96.6 154Q96.5 153.5 96.1 153.2Q95.7 152.8 94.9 152.8Q94.2 152.8 93.7 153.2Q93.2 153.5 93.2 154Q93.2 154.5 93.5 154.7Q93.9 155 94.6 155.2L95.8 155.5Q96.9 155.7 97.5 156.3Q98 156.9 98 157.7Q98 158.4 97.6 159Q97.2 159.5 96.4 159.9Q95.7 160.2 94.8 160.2ZM103.2 160.2Q102.1 160.2 101.3 159.6Q100.4 159.1 100 158.2Q99.5 157.2 99.5 156Q99.5 154.7 100 153.7Q100.4 152.8 101.3 152.2Q102.1 151.7 103.2 151.7Q104.3 151.7 105.2 152.2Q106 152.8 106.5 153.7Q107 154.7 107 156Q107 157.2 106.5 158.2Q106 159.1 105.2 159.6Q104.3 160.2 103.2 160.2ZM103.2 159Q104.1 159 104.6 158.6Q105.1 158.1 105.4 157.5Q105.6 156.8 105.6 156Q105.6 155.1 105.4 154.4Q105.1 153.7 104.6 153.3Q104.1 152.9 103.2 152.9Q102.4 152.9 101.9 153.3Q101.4 153.7 101.1 154.4Q100.8 155.1 100.8 156Q100.8 156.8 101.1 157.5Q101.4 158.1 101.9 158.6Q102.4 159 103.2 159ZM111.7 160.1Q110.8 160.1 110.2 159.8Q109.6 159.4 109.2 158.7Q108.9 158 108.9 157V151.8H110.2V156.9Q110.2 157.8 110.7 158.4Q111.2 158.9 112.1 158.9Q112.6 158.9 113.1 158.7Q113.6 158.4 113.8 157.9Q114.1 157.4 114.1 156.7V151.8H115.4V160H114.2V158H114.3Q114 159.2 113.3 159.6Q112.6 160.1 111.7 160.1ZM117.8 160V151.8H119V153.1H119.1Q119.3 152.4 119.9 152.1Q120.5 151.7 121.2 151.7Q121.4 151.7 121.6 151.7Q121.8 151.7 121.9 151.7V153Q121.9 153 121.6 153Q121.4 153 121.1 153Q120.5 153 120.1 153.2Q119.6 153.5 119.3 153.9Q119.1 154.3 119.1 154.9V160ZM126.7 160.2Q125.6 160.2 124.8 159.6Q123.9 159.1 123.5 158.2Q123 157.2 123 156Q123 154.7 123.5 153.7Q123.9 152.8 124.8 152.2Q125.6 151.7 126.7 151.7Q127.3 151.7 127.9 151.9Q128.4 152 128.8 152.3Q129.3 152.6 129.6 153Q129.9 153.4 130.1 154L128.8 154.3Q128.7 154 128.5 153.8Q128.3 153.5 128.1 153.3Q127.8 153.1 127.5 153Q127.1 152.9 126.7 152.9Q125.9 152.9 125.4 153.3Q124.9 153.7 124.6 154.4Q124.4 155.1 124.4 156Q124.4 156.8 124.6 157.5Q124.9 158.1 125.4 158.6Q125.9 159 126.7 159Q127.1 159 127.5 158.9Q127.8 158.8 128.1 158.6Q128.4 158.4 128.6 158.1Q128.7 157.8 128.8 157.5L130.1 157.8Q129.9 158.4 129.6 158.8Q129.3 159.3 128.8 159.6Q128.4 159.9 127.9 160Q127.3 160.2 126.7 160.2ZM135.4 160.2Q134.2 160.2 133.4 159.6Q132.5 159.1 132 158.2Q131.6 157.2 131.6 156Q131.6 154.7 132 153.8Q132.5 152.8 133.3 152.3Q134.2 151.7 135.3 151.7Q135.9 151.7 136.5 151.9Q137.2 152.1 137.7 152.6Q138.2 153.1 138.5 153.9Q138.8 154.7 138.8 155.8V156.4H132.5V155.2H138.1L137.5 155.6Q137.5 154.8 137.3 154.2Q137 153.6 136.5 153.2Q136 152.9 135.3 152.9Q134.5 152.9 134 153.2Q133.5 153.6 133.2 154.2Q132.9 154.8 132.9 155.4V156.2Q132.9 157.1 133.2 157.7Q133.5 158.4 134.1 158.7Q134.7 159 135.4 159Q135.9 159 136.3 158.9Q136.7 158.7 137 158.4Q137.3 158.2 137.4 157.7L138.7 158.1Q138.5 158.7 138.1 159.2Q137.6 159.6 136.9 159.9Q136.3 160.2 135.4 160.2ZM140.5 162.6 141.1 158.5H142.7L141.5 162.6ZM153.1 151.8V152.9H148.2V151.8ZM149.9 160V150.7Q149.9 150 150.2 149.5Q150.5 149.1 151.1 148.8Q151.6 148.6 152.2 148.6Q152.7 148.6 153 148.7Q153.3 148.7 153.4 148.8L153.1 149.9Q153 149.9 152.8 149.8Q152.6 149.8 152.3 149.8Q151.7 149.8 151.5 150.1Q151.2 150.4 151.2 151V160ZM158.1 160.2Q157 160.2 156.2 159.6Q155.4 159.1 154.9 158.2Q154.4 157.2 154.4 156Q154.4 154.7 154.9 153.7Q155.4 152.8 156.2 152.2Q157 151.7 158.1 151.7Q159.3 151.7 160.1 152.2Q160.9 152.8 161.4 153.7Q161.9 154.7 161.9 156Q161.9 157.2 161.4 158.2Q160.9 159.1 160.1 159.6Q159.3 160.2 158.1 160.2ZM158.1 159Q159 159 159.5 158.6Q160 158.1 160.3 157.5Q160.6 156.8 160.6 156Q160.6 155.1 160.3 154.4Q160 153.7 159.5 153.3Q159 152.9 158.1 152.9Q157.3 152.9 156.8 153.3Q156.3 153.7 156 154.4Q155.8 155.1 155.8 156Q155.8 156.8 156 157.5Q156.3 158.1 156.8 158.6Q157.3 159 158.1 159ZM166.6 160.1Q165.8 160.1 165.1 159.8Q164.5 159.4 164.2 158.7Q163.8 158 163.8 157V151.8H165.1V156.9Q165.1 157.8 165.6 158.4Q166.1 158.9 167 158.9Q167.6 158.9 168 158.7Q168.5 158.4 168.8 157.9Q169 157.4 169 156.7V151.8H170.4V160H169.1V158H169.3Q168.9 159.2 168.2 159.6Q167.5 160.1 166.6 160.1ZM172.7 160V151.8H174V153.1H174Q174.3 152.4 174.8 152.1Q175.4 151.7 176.2 151.7Q176.3 151.7 176.5 151.7Q176.7 151.7 176.8 151.7V153Q176.8 153 176.5 153Q176.3 153 176 153Q175.5 153 175 153.2Q174.5 153.5 174.3 153.9Q174 154.3 174 154.9V160ZM183.9 149.1V160H182.5V149.1ZM188.5 160.2Q187.7 160.2 187.1 159.9Q186.4 159.6 186 159Q185.7 158.5 185.7 157.7Q185.7 157 186 156.5Q186.2 156.1 186.7 155.8Q187.2 155.6 187.7 155.5Q188.3 155.3 188.9 155.3Q189.6 155.2 190.1 155.1Q190.5 155.1 190.7 154.9Q191 154.8 191 154.5V154.5Q191 154 190.8 153.6Q190.6 153.2 190.2 153.1Q189.8 152.9 189.3 152.9Q188.7 152.9 188.2 153Q187.8 153.2 187.6 153.5Q187.3 153.8 187.2 154.1L185.9 153.6Q186.2 152.9 186.8 152.5Q187.3 152.1 187.9 151.9Q188.6 151.7 189.2 151.7Q189.6 151.7 190.1 151.8Q190.7 151.9 191.2 152.2Q191.6 152.5 192 153.1Q192.3 153.6 192.3 154.6V160H191V158.9H190.9Q190.8 159.2 190.5 159.5Q190.1 159.8 189.7 160Q189.2 160.2 188.5 160.2ZM188.7 159Q189.4 159 189.9 158.7Q190.4 158.5 190.7 158Q191 157.5 191 157V155.9Q190.9 156 190.6 156.1Q190.3 156.2 190 156.2Q189.6 156.3 189.3 156.3Q189 156.4 188.8 156.4Q188.3 156.4 187.9 156.6Q187.5 156.7 187.3 157Q187 157.3 187 157.7Q187 158.2 187.2 158.4Q187.4 158.7 187.8 158.9Q188.2 159 188.7 159ZM194.5 163 194.8 161.8 194.9 161.9Q195.3 162 195.7 161.9Q196 161.9 196.3 161.6Q196.5 161.3 196.7 160.7L197 160L193.8 151.8H195.3L197 156.7Q197.3 157.4 197.5 158.2Q197.7 158.9 197.9 159.6H197.4Q197.6 158.9 197.8 158.2Q198 157.4 198.3 156.7L200 151.8H201.5L197.9 161.2Q197.6 161.9 197.3 162.3Q196.9 162.7 196.5 162.9Q196 163.1 195.4 163.1Q195.1 163.1 194.8 163.1Q194.6 163 194.5 163ZM206.5 160.2Q205.3 160.2 204.4 159.6Q203.6 159.1 203.1 158.2Q202.6 157.2 202.6 156Q202.6 154.7 203.1 153.8Q203.5 152.8 204.4 152.3Q205.2 151.7 206.3 151.7Q207 151.7 207.6 151.9Q208.2 152.1 208.8 152.6Q209.3 153.1 209.6 153.9Q209.9 154.7 209.9 155.8V156.4H203.5V155.2H209.2L208.6 155.6Q208.6 154.8 208.3 154.2Q208.1 153.6 207.6 153.2Q207.1 152.9 206.3 152.9Q205.6 152.9 205 153.2Q204.5 153.6 204.2 154.2Q204 154.8 204 155.4V156.2Q204 157.1 204.3 157.7Q204.6 158.4 205.2 158.7Q205.7 159 206.5 159Q207 159 207.4 158.9Q207.8 158.7 208 158.4Q208.3 158.2 208.5 157.7L209.8 158.1Q209.6 158.7 209.1 159.2Q208.7 159.6 208 159.9Q207.3 160.2 206.5 160.2ZM211.8 160V151.8H213V153.1H213.1Q213.4 152.4 213.9 152.1Q214.5 151.7 215.3 151.7Q215.4 151.7 215.6 151.7Q215.8 151.7 215.9 151.7V153Q215.9 153 215.6 153Q215.4 153 215.1 153Q214.5 153 214.1 153.2Q213.6 153.5 213.4 153.9Q213.1 154.3 213.1 154.9V160ZM220.2 160.2Q219.4 160.2 218.7 159.9Q218 159.7 217.6 159.2Q217.2 158.7 217.1 158L218.3 157.7Q218.5 158.4 219 158.7Q219.5 159 220.2 159Q221 159 221.6 158.7Q222.1 158.3 222.1 157.8Q222.1 157.4 221.8 157.1Q221.5 156.8 220.9 156.7L219.5 156.3Q218.4 156.1 217.8 155.5Q217.3 155 217.3 154.1Q217.3 153.4 217.7 152.9Q218.1 152.3 218.8 152Q219.5 151.7 220.3 151.7Q221.2 151.7 221.8 152Q222.4 152.2 222.7 152.7Q223.1 153.1 223.3 153.7L222.1 154Q221.9 153.5 221.5 153.2Q221.1 152.8 220.3 152.8Q219.6 152.8 219.1 153.2Q218.6 153.5 218.6 154Q218.6 154.5 219 154.7Q219.3 155 220 155.2L221.2 155.5Q222.4 155.7 222.9 156.3Q223.4 156.9 223.4 157.7Q223.4 158.4 223 159Q222.6 159.5 221.9 159.9Q221.2 160.2 220.2 160.2Z"/>
<line x1="414.0" y1="134.0" x2="441.0" y2="134.0" stroke="#6366f1" stroke-width="2"/>
<path d="M450.0 134.0 L440.0 129.0 L440.0 139.0 Z" fill="#6366f1"/>
<rect x="456.0" y="74" width="368.0" height="120" rx="16" fill="#111113" fill-opacity="0.92" stroke="#6366f1" stroke-width="1.6"/>
<rect x="476.0" y="94" width="22" height="2" fill="#6366f1"/>
<path fill="#f4f4f5" d="M482.1 130.3Q479.7 130.3 478.3 128.8Q477 127.3 477 124.6V121.4Q477 118.7 478.3 117.2Q479.7 115.7 482.1 115.7Q484.5 115.7 485.9 117.2Q487.3 118.7 487.3 121.4V124.6Q487.3 127.3 485.9 128.8Q484.5 130.3 482.1 130.3ZM482.1 127.9Q483.6 127.9 484.1 127Q484.6 126.1 484.6 124.7V121.3Q484.6 120.4 484.4 119.7Q484.1 119 483.6 118.5Q483 118.1 482.1 118.1Q481.2 118.1 480.7 118.5Q480.1 119 479.9 119.7Q479.6 120.4 479.6 121.3V124.7Q479.6 126.1 480.1 127Q480.7 127.9 482.1 127.9ZM494.7 130.3Q492.2 130.3 490.9 128.9Q489.6 127.5 489.6 125.2V116H492.3V125.2Q492.3 126.4 492.9 127.1Q493.4 127.8 494.7 127.8Q495.9 127.8 496.5 127.1Q497.1 126.4 497.1 125.2V116H499.7V125.2Q499.7 127.5 498.4 128.9Q497.2 130.3 494.7 130.3ZM505.9 130V118.5H502.2V116H512.2V118.5H508.5V130ZM515.1 130V116H520.5Q522 116 522.9 116.6Q523.9 117.2 524.4 118.1Q524.8 119 524.8 120.1V120.5Q524.8 121.6 524.4 122.5Q523.9 123.5 522.9 124.1Q522 124.7 520.5 124.7H517.7V130ZM517.7 122.2H520.3Q521.2 122.2 521.7 121.7Q522.2 121.2 522.2 120.5V120.2Q522.2 119.5 521.7 119Q521.2 118.5 520.3 118.5H517.7ZM532.3 130.3Q529.8 130.3 528.5 128.9Q527.2 127.5 527.2 125.2V116H529.9V125.2Q529.9 126.4 530.5 127.1Q531.1 127.8 532.3 127.8Q533.5 127.8 534.1 127.1Q534.7 126.4 534.7 125.2V116H537.3V125.2Q537.3 127.5 536 128.9Q534.8 130.3 532.3 130.3ZM543.5 130V118.5H539.8V116H549.9V118.5H546.1V130ZM557.6 130.3Q555.7 130.3 554.5 129.6Q553.2 128.9 552.6 127.8Q552 126.6 552 125.2V124.6H554.6V125Q554.6 126.3 555.3 127Q556.1 127.8 557.6 127.8Q558.8 127.8 559.4 127.3Q560 126.8 560 126Q560 125.6 559.7 125.2Q559.5 124.8 558.9 124.5Q558.4 124.2 557.3 124Q555.9 123.8 554.8 123.3Q553.7 122.9 553.1 122Q552.4 121.2 552.4 119.8V119.7Q552.4 118.6 553 117.7Q553.6 116.8 554.7 116.2Q555.8 115.7 557.3 115.7Q558.9 115.7 560.1 116.3Q561.2 116.9 561.8 117.9Q562.4 118.9 562.4 120V120.8H559.8V120.3Q559.8 119.4 559.1 118.8Q558.5 118.2 557.3 118.2Q556.3 118.2 555.7 118.6Q555.1 119 555.1 119.7Q555.1 120.4 555.7 120.9Q556.4 121.3 558.1 121.6Q560.3 122 561.5 123Q562.6 123.9 562.6 125.8V126Q562.6 127.9 561.3 129.1Q559.9 130.3 557.6 130.3Z"/>
<path fill="#a1a1aa" d="M480.4 151.8V152.9H476.1V151.8ZM477.4 149.9H478.7V157.9Q478.7 158.4 478.9 158.7Q479.1 158.9 479.7 158.9Q479.8 158.9 480 158.9Q480.2 158.9 480.3 158.8L480.6 160Q480.4 160 480.1 160.1Q479.9 160.1 479.6 160.1Q478.6 160.1 478 159.5Q477.4 159 477.4 158ZM485.4 160.2Q484.3 160.2 483.4 159.6Q482.6 159.1 482.1 158.2Q481.7 157.2 481.7 156Q481.7 154.7 482.1 153.7Q482.6 152.8 483.4 152.2Q484.3 151.7 485.4 151.7Q486.5 151.7 487.4 152.2Q488.2 152.8 488.7 153.7Q489.1 154.7 489.1 156Q489.1 157.2 488.7 158.2Q488.2 159.1 487.4 159.6Q486.5 160.2 485.4 160.2ZM485.4 159Q486.2 159 486.8 158.6Q487.3 158.1 487.6 157.5Q487.8 156.8 487.8 156Q487.8 155.1 487.6 154.4Q487.3 153.7 486.8 153.3Q486.2 152.9 485.4 152.9Q484.6 152.9 484 153.3Q483.5 153.7 483.3 154.4Q483 155.1 483 156Q483 156.8 483.3 157.5Q483.5 158.1 484 158.6Q484.6 159 485.4 159ZM492.3 157.1V155.4H492.5L496 151.8H497.7L493.9 155.7H493.7ZM491.1 160V149.1H492.4V160ZM496.2 160 493.1 156 494 155.1 497.9 160ZM502.7 160.2Q501.5 160.2 500.7 159.6Q499.8 159.1 499.4 158.2Q498.9 157.2 498.9 156Q498.9 154.7 499.3 153.8Q499.8 152.8 500.6 152.3Q501.5 151.7 502.6 151.7Q503.2 151.7 503.9 151.9Q504.5 152.1 505 152.6Q505.5 153.1 505.8 153.9Q506.1 154.7 506.1 155.8V156.4H499.8V155.2H505.4L504.8 155.6Q504.8 154.8 504.6 154.2Q504.3 153.6 503.8 153.2Q503.3 152.9 502.6 152.9Q501.8 152.9 501.3 153.2Q500.8 153.6 500.5 154.2Q500.2 154.8 500.2 155.4V156.2Q500.2 157.1 500.5 157.7Q500.9 158.4 501.4 158.7Q502 159 502.7 159Q503.2 159 503.6 158.9Q504 158.7 504.3 158.4Q504.6 158.2 504.7 157.7L506 158.1Q505.8 158.7 505.4 159.2Q504.9 159.6 504.2 159.9Q503.6 160.2 502.7 160.2ZM509.4 155.1V160H508V151.8H509.3L509.3 153.8H509.1Q509.5 152.7 510.2 152.2Q510.9 151.7 511.8 151.7Q512.6 151.7 513.3 152Q513.9 152.4 514.2 153.1Q514.6 153.8 514.6 154.8V160H513.3V154.9Q513.3 154 512.8 153.4Q512.3 152.9 511.4 152.9Q510.8 152.9 510.4 153.2Q509.9 153.4 509.6 153.9Q509.4 154.4 509.4 155.1ZM519.7 160.2Q518.8 160.2 518.2 159.9Q517.5 159.7 517.1 159.2Q516.7 158.7 516.5 158L517.8 157.7Q518 158.4 518.4 158.7Q518.9 159 519.7 159Q520.5 159 521 158.7Q521.5 158.3 521.5 157.8Q521.5 157.4 521.2 157.1Q520.9 156.8 520.3 156.7L519 156.3Q517.9 156.1 517.3 155.5Q516.8 155 516.8 154.1Q516.8 153.4 517.2 152.9Q517.6 152.3 518.3 152Q518.9 151.7 519.8 151.7Q520.7 151.7 521.2 152Q521.8 152.2 522.2 152.7Q522.6 153.1 522.8 153.7L521.6 154Q521.4 153.5 521 153.2Q520.6 152.8 519.8 152.8Q519.1 152.8 518.6 153.2Q518.1 153.5 518.1 154Q518.1 154.5 518.4 154.7Q518.8 155 519.5 155.2L520.7 155.5Q521.8 155.7 522.4 156.3Q522.9 156.9 522.9 157.7Q522.9 158.4 522.5 159Q522.1 159.5 521.4 159.9Q520.6 160.2 519.7 160.2ZM525.8 160.1Q525.4 160.1 525.1 159.8Q524.8 159.5 524.8 159.1Q524.8 158.7 525.1 158.4Q525.4 158.1 525.8 158.1Q526.2 158.1 526.5 158.4Q526.8 158.7 526.8 159.1Q526.8 159.5 526.5 159.8Q526.2 160.1 525.8 160.1ZM532.5 160.2Q531.4 160.2 530.5 159.6Q529.7 159.1 529.2 158.2Q528.7 157.2 528.7 156Q528.7 154.7 529.2 153.7Q529.7 152.8 530.5 152.2Q531.4 151.7 532.5 151.7Q533.1 151.7 533.6 151.9Q534.1 152 534.6 152.3Q535 152.6 535.3 153Q535.6 153.4 535.8 154L534.5 154.3Q534.4 154 534.2 153.8Q534.1 153.5 533.8 153.3Q533.5 153.1 533.2 153Q532.9 152.9 532.5 152.9Q531.6 152.9 531.1 153.3Q530.6 153.7 530.3 154.4Q530.1 155.1 530.1 156Q530.1 156.8 530.3 157.5Q530.6 158.1 531.1 158.6Q531.6 159 532.5 159Q532.9 159 533.2 158.9Q533.6 158.8 533.8 158.6Q534.1 158.4 534.3 158.1Q534.5 157.8 534.6 157.5L535.8 157.8Q535.7 158.4 535.3 158.8Q535 159.3 534.6 159.6Q534.1 159.9 533.6 160Q533.1 160.2 532.5 160.2ZM540.5 160.2Q539.6 160.2 539 159.9Q538.3 159.7 537.9 159.2Q537.5 158.7 537.3 158L538.6 157.7Q538.8 158.4 539.3 158.7Q539.7 159 540.5 159Q541.3 159 541.8 158.7Q542.4 158.3 542.4 157.8Q542.4 157.4 542.1 157.1Q541.8 156.8 541.1 156.7L539.8 156.3Q538.7 156.1 538.1 155.5Q537.6 155 537.6 154.1Q537.6 153.4 538 152.9Q538.4 152.3 539.1 152Q539.8 151.7 540.6 151.7Q541.5 151.7 542.1 152Q542.6 152.2 543 152.7Q543.4 153.1 543.6 153.7L542.4 154Q542.2 153.5 541.8 153.2Q541.4 152.8 540.6 152.8Q539.9 152.8 539.4 153.2Q538.9 153.5 538.9 154Q538.9 154.5 539.3 154.7Q539.6 155 540.3 155.2L541.5 155.5Q542.7 155.7 543.2 156.3Q543.7 156.9 543.7 157.7Q543.7 158.4 543.3 159Q542.9 159.5 542.2 159.9Q541.4 160.2 540.5 160.2ZM548.4 160.2Q547.6 160.2 546.9 159.9Q546.3 159.7 545.8 159.2Q545.4 158.7 545.3 158L546.5 157.7Q546.7 158.4 547.2 158.7Q547.7 159 548.4 159Q549.2 159 549.8 158.7Q550.3 158.3 550.3 157.8Q550.3 157.4 550 157.1Q549.7 156.8 549.1 156.7L547.7 156.3Q546.6 156.1 546 155.5Q545.5 155 545.5 154.1Q545.5 153.4 545.9 152.9Q546.3 152.3 547 152Q547.7 151.7 548.5 151.7Q549.4 151.7 550 152Q550.6 152.2 550.9 152.7Q551.3 153.1 551.5 153.7L550.3 154Q550.1 153.5 549.7 153.2Q549.3 152.8 548.5 152.8Q547.8 152.8 547.3 153.2Q546.8 153.5 546.8 154Q546.8 154.5 547.2 154.7Q547.5 155 548.2 155.2L549.5 155.5Q550.6 155.7 551.1 156.3Q551.6 156.9 551.6 157.7Q551.6 158.4 551.2 159Q550.8 159.5 550.1 159.9Q549.4 160.2 548.4 160.2ZM553.3 162.6 554 158.5H555.5L554.3 162.6ZM565.3 151.8V152.9H561.1V151.8ZM562.3 149.9H563.6V157.9Q563.6 158.4 563.8 158.7Q564.1 158.9 564.6 158.9Q564.7 158.9 564.9 158.9Q565.1 158.9 565.3 158.8L565.5 160Q565.3 160 565.1 160.1Q564.8 160.1 564.5 160.1Q563.5 160.1 562.9 159.5Q562.3 159 562.3 158ZM569.3 160.2Q568.5 160.2 567.9 159.9Q567.2 159.6 566.9 159Q566.5 158.5 566.5 157.7Q566.5 157 566.8 156.5Q567 156.1 567.5 155.8Q568 155.6 568.5 155.5Q569.1 155.3 569.7 155.3Q570.4 155.2 570.9 155.1Q571.3 155.1 571.6 154.9Q571.8 154.8 571.8 154.5V154.5Q571.8 154 571.6 153.6Q571.4 153.2 571 153.1Q570.6 152.9 570.1 152.9Q569.5 152.9 569.1 153Q568.6 153.2 568.4 153.5Q568.1 153.8 568 154.1L566.7 153.6Q567 152.9 567.6 152.5Q568.1 152.1 568.8 151.9Q569.4 151.7 570 151.7Q570.4 151.7 571 151.8Q571.5 151.9 572 152.2Q572.5 152.5 572.8 153.1Q573.1 153.6 573.1 154.6V160H571.8V158.9H571.7Q571.6 159.2 571.3 159.5Q571 159.8 570.5 160Q570 160.2 569.3 160.2ZM569.5 159Q570.2 159 570.7 158.7Q571.3 158.5 571.5 158Q571.8 157.5 571.8 157V155.9Q571.7 156 571.4 156.1Q571.2 156.2 570.8 156.2Q570.5 156.3 570.1 156.3Q569.8 156.4 569.6 156.4Q569.1 156.4 568.7 156.6Q568.3 156.7 568.1 157Q567.8 157.3 567.8 157.7Q567.8 158.2 568 158.4Q568.3 158.7 568.6 158.9Q569 159 569.5 159ZM575.4 160V151.8H576.7V160ZM576.1 150.5Q575.7 150.5 575.4 150.2Q575.2 150 575.2 149.6Q575.2 149.2 575.4 149Q575.7 148.7 576.1 148.7Q576.5 148.7 576.7 149Q577 149.2 577 149.6Q577 150 576.7 150.2Q576.5 150.5 576.1 150.5ZM580.4 149.1V160H579V149.1ZM584.5 160 582 151.8H583.4L584.4 155.4Q584.6 156.1 584.9 157Q585.1 158 585.3 159.1H585.1Q585.3 158 585.5 157.1Q585.8 156.2 586 155.4L587 151.8H588.4L589.3 155.4Q589.5 156.1 589.8 157.1Q590 158 590.2 159.1H590Q590.2 158 590.4 157.1Q590.7 156.2 590.9 155.4L591.9 151.8H593.3L590.8 160H589.5L588.4 156.3Q588.3 155.7 588.1 155.1Q588 154.6 587.8 153.9Q587.7 153.3 587.5 152.7H587.8Q587.7 153.3 587.5 153.9Q587.4 154.6 587.2 155.2Q587 155.7 586.9 156.3L585.8 160ZM595 160V151.8H596.3V160ZM595.6 150.5Q595.2 150.5 595 150.2Q594.7 150 594.7 149.6Q594.7 149.2 595 149Q595.2 148.7 595.6 148.7Q596 148.7 596.3 149Q596.5 149.2 596.5 149.6Q596.5 150 596.3 150.2Q596 150.5 595.6 150.5ZM599.9 155.1V160H598.6V151.8H599.9L599.9 153.8H599.7Q600.1 152.7 600.7 152.2Q601.4 151.7 602.4 151.7Q603.2 151.7 603.8 152Q604.4 152.4 604.8 153.1Q605.1 153.8 605.1 154.8V160H603.8V154.9Q603.8 154 603.3 153.4Q602.8 152.9 602 152.9Q601.4 152.9 600.9 153.2Q600.4 153.4 600.2 153.9Q599.9 154.4 599.9 155.1ZM610.5 160.2Q609.5 160.2 608.7 159.7Q607.9 159.1 607.5 158.2Q607.1 157.2 607.1 155.9Q607.1 154.6 607.5 153.7Q607.9 152.7 608.7 152.2Q609.5 151.7 610.5 151.7Q611.3 151.7 611.8 152Q612.3 152.2 612.5 152.6Q612.8 152.9 612.9 153.1H613V149.1H614.3V160H613V158.7H612.9Q612.8 159 612.5 159.3Q612.2 159.6 611.8 159.9Q611.3 160.2 610.5 160.2ZM610.7 159Q611.5 159 612 158.6Q612.5 158.2 612.8 157.5Q613 156.8 613 155.9Q613 155 612.8 154.3Q612.5 153.6 612 153.3Q611.5 152.9 610.7 152.9Q609.9 152.9 609.4 153.3Q608.9 153.7 608.6 154.4Q608.4 155.1 608.4 155.9Q608.4 156.8 608.7 157.5Q608.9 158.2 609.4 158.6Q610 159 610.7 159ZM617.6 160.1Q617.2 160.1 616.9 159.8Q616.6 159.5 616.6 159.1Q616.6 158.7 616.9 158.4Q617.2 158.1 617.6 158.1Q618 158.1 618.3 158.4Q618.6 158.7 618.6 159.1Q618.6 159.5 618.3 159.8Q618 160.1 617.6 160.1ZM624.3 160.2Q623.2 160.2 622.3 159.6Q621.5 159.1 621 158.2Q620.6 157.2 620.6 156Q620.6 154.7 621 153.7Q621.5 152.8 622.3 152.2Q623.2 151.7 624.3 151.7Q624.9 151.7 625.4 151.9Q625.9 152 626.4 152.3Q626.8 152.6 627.1 153Q627.4 153.4 627.6 154L626.3 154.3Q626.2 154 626.1 153.8Q625.9 153.5 625.6 153.3Q625.4 153.1 625 153Q624.7 152.9 624.3 152.9Q623.5 152.9 622.9 153.3Q622.4 153.7 622.2 154.4Q621.9 155.1 621.9 156Q621.9 156.8 622.2 157.5Q622.4 158.1 622.9 158.6Q623.5 159 624.3 159Q624.7 159 625 158.9Q625.4 158.8 625.7 158.6Q625.9 158.4 626.1 158.1Q626.3 157.8 626.4 157.5L627.6 157.8Q627.5 158.4 627.2 158.8Q626.8 159.3 626.4 159.6Q626 159.9 625.4 160Q624.9 160.2 624.3 160.2ZM632.3 160.2Q631.5 160.2 630.8 159.9Q630.2 159.7 629.7 159.2Q629.3 158.7 629.2 158L630.4 157.7Q630.6 158.4 631.1 158.7Q631.6 159 632.3 159Q633.1 159 633.7 158.7Q634.2 158.3 634.2 157.8Q634.2 157.4 633.9 157.1Q633.6 156.8 633 156.7L631.6 156.3Q630.5 156.1 629.9 155.5Q629.4 155 629.4 154.1Q629.4 153.4 629.8 152.9Q630.2 152.3 630.9 152Q631.6 151.7 632.4 151.7Q633.3 151.7 633.9 152Q634.5 152.2 634.8 152.7Q635.2 153.1 635.4 153.7L634.2 154Q634 153.5 633.6 153.2Q633.2 152.8 632.4 152.8Q631.7 152.8 631.2 153.2Q630.7 153.5 630.7 154Q630.7 154.5 631.1 154.7Q631.4 155 632.1 155.2L633.4 155.5Q634.5 155.7 635 156.3Q635.5 156.9 635.5 157.7Q635.5 158.4 635.1 159Q634.7 159.5 634 159.9Q633.3 160.2 632.3 160.2ZM640.2 160.2Q639.4 160.2 638.7 159.9Q638.1 159.7 637.6 159.2Q637.2 158.7 637.1 158L638.3 157.7Q638.5 158.4 639 158.7Q639.5 159 640.2 159Q641.1 159 641.6 158.7Q642.1 158.3 642.1 157.8Q642.1 157.4 641.8 157.1Q641.5 156.8 640.9 156.7L639.5 156.3Q638.4 156.1 637.9 155.5Q637.3 155 637.3 154.1Q637.3 153.4 637.7 152.9Q638.1 152.3 638.8 152Q639.5 151.7 640.4 151.7Q641.2 151.7 641.8 152Q642.4 152.2 642.7 152.7Q643.1 153.1 643.3 153.7L642.1 154Q641.9 153.5 641.5 153.2Q641.2 152.8 640.4 152.8Q639.6 152.8 639.1 153.2Q638.7 153.5 638.7 154Q638.7 154.5 639 154.7Q639.3 155 640 155.2L641.3 155.5Q642.4 155.7 642.9 156.3Q643.5 156.9 643.5 157.7Q643.5 158.4 643 159Q642.6 159.5 641.9 159.9Q641.2 160.2 640.2 160.2ZM645.1 162.6 645.8 158.5H647.3L646.1 162.6ZM657.1 151.8V152.9H652.9V151.8ZM654.1 149.9H655.4V157.9Q655.4 158.4 655.7 158.7Q655.9 158.9 656.4 158.9Q656.5 158.9 656.7 158.9Q656.9 158.9 657.1 158.8L657.3 160Q657.1 160 656.9 160.1Q656.6 160.1 656.4 160.1Q655.3 160.1 654.7 159.5Q654.1 159 654.1 158ZM662.1 160.2Q661 160.2 660.2 159.6Q659.3 159.1 658.9 158.2Q658.4 157.2 658.4 156Q658.4 154.7 658.9 153.7Q659.3 152.8 660.2 152.2Q661 151.7 662.1 151.7Q663.3 151.7 664.1 152.2Q664.9 152.8 665.4 153.7Q665.9 154.7 665.9 156Q665.9 157.2 665.4 158.2Q664.9 159.1 664.1 159.6Q663.3 160.2 662.1 160.2ZM662.1 159Q663 159 663.5 158.6Q664 158.1 664.3 157.5Q664.5 156.8 664.5 156Q664.5 155.1 664.3 154.4Q664 153.7 663.5 153.3Q663 152.9 662.1 152.9Q661.3 152.9 660.8 153.3Q660.3 153.7 660 154.4Q659.8 155.1 659.8 156Q659.8 156.8 660 157.5Q660.3 158.1 660.8 158.6Q661.3 159 662.1 159ZM669 157.1V155.4H669.3L672.8 151.8H674.4L670.6 155.7H670.5ZM667.8 160V149.1H669.1V160ZM673 160 669.8 156 670.8 155.1 674.7 160ZM679.5 160.2Q678.3 160.2 677.4 159.6Q676.6 159.1 676.1 158.2Q675.6 157.2 675.6 156Q675.6 154.7 676.1 153.8Q676.5 152.8 677.4 152.3Q678.2 151.7 679.3 151.7Q680 151.7 680.6 151.9Q681.2 152.1 681.8 152.6Q682.3 153.1 682.6 153.9Q682.9 154.7 682.9 155.8V156.4H676.5V155.2H682.2L681.6 155.6Q681.6 154.8 681.3 154.2Q681.1 153.6 680.6 153.2Q680.1 152.9 679.3 152.9Q678.6 152.9 678.1 153.2Q677.5 153.6 677.2 154.2Q677 154.8 677 155.4V156.2Q677 157.1 677.3 157.7Q677.6 158.4 678.2 158.7Q678.7 159 679.5 159Q680 159 680.4 158.9Q680.8 158.7 681 158.4Q681.3 158.2 681.5 157.7L682.8 158.1Q682.6 158.7 682.1 159.2Q681.7 159.6 681 159.9Q680.3 160.2 679.5 160.2ZM686.1 155.1V160H684.8V151.8H686L686.1 153.8H685.9Q686.2 152.7 686.9 152.2Q687.6 151.7 688.6 151.7Q689.4 151.7 690 152Q690.6 152.4 691 153.1Q691.3 153.8 691.3 154.8V160H690V154.9Q690 154 689.5 153.4Q689 152.9 688.2 152.9Q687.6 152.9 687.1 153.2Q686.6 153.4 686.4 153.9Q686.1 154.4 686.1 155.1ZM696.4 160.2Q695.6 160.2 694.9 159.9Q694.3 159.7 693.8 159.2Q693.4 158.7 693.3 158L694.5 157.7Q694.7 158.4 695.2 158.7Q695.7 159 696.4 159Q697.3 159 697.8 158.7Q698.3 158.3 698.3 157.8Q698.3 157.4 698 157.1Q697.7 156.8 697.1 156.7L695.7 156.3Q694.6 156.1 694.1 155.5Q693.5 155 693.5 154.1Q693.5 153.4 693.9 152.9Q694.3 152.3 695 152Q695.7 151.7 696.6 151.7Q697.4 151.7 698 152Q698.6 152.2 698.9 152.7Q699.3 153.1 699.5 153.7L698.3 154Q698.1 153.5 697.7 153.2Q697.4 152.8 696.6 152.8Q695.8 152.8 695.3 153.2Q694.9 153.5 694.9 154Q694.9 154.5 695.2 154.7Q695.5 155 696.2 155.2L697.5 155.5Q698.6 155.7 699.1 156.3Q699.7 156.9 699.7 157.7Q699.7 158.4 699.2 159Q698.8 159.5 698.1 159.9Q697.4 160.2 696.4 160.2ZM702.6 160.1Q702.1 160.1 701.9 159.8Q701.6 159.5 701.6 159.1Q701.6 158.7 701.9 158.4Q702.1 158.1 702.6 158.1Q703 158.1 703.3 158.4Q703.5 158.7 703.5 159.1Q703.5 159.5 703.3 159.8Q703 160.1 702.6 160.1ZM705.9 151.8H707.2V160.6Q707.2 161.4 706.9 161.9Q706.7 162.5 706.1 162.8Q705.6 163.1 704.8 163.1H704.5V161.8H704.8Q705.3 161.8 705.6 161.5Q705.9 161.2 705.9 160.6ZM706.5 150.5Q706.2 150.5 705.9 150.2Q705.6 150 705.6 149.6Q705.6 149.2 705.9 149Q706.2 148.7 706.5 148.7Q706.9 148.7 707.2 149Q707.5 149.2 707.5 149.6Q707.5 150 707.2 150.2Q706.9 150.5 706.5 150.5ZM712.3 160.2Q711.5 160.2 710.8 159.9Q710.1 159.7 709.7 159.2Q709.3 158.7 709.1 158L710.4 157.7Q710.6 158.4 711.1 158.7Q711.5 159 712.3 159Q713.1 159 713.6 158.7Q714.2 158.3 714.2 157.8Q714.2 157.4 713.9 157.1Q713.6 156.8 713 156.7L711.6 156.3Q710.5 156.1 709.9 155.5Q709.4 155 709.4 154.1Q709.4 153.4 709.8 152.9Q710.2 152.3 710.9 152Q711.6 151.7 712.4 151.7Q713.3 151.7 713.9 152Q714.4 152.2 714.8 152.7Q715.2 153.1 715.4 153.7L714.2 154Q714 153.5 713.6 153.2Q713.2 152.8 712.4 152.8Q711.7 152.8 711.2 153.2Q710.7 153.5 710.7 154Q710.7 154.5 711.1 154.7Q711.4 155 712.1 155.2L713.3 155.5Q714.5 155.7 715 156.3Q715.5 156.9 715.5 157.7Q715.5 158.4 715.1 159Q714.7 159.5 714 159.9Q713.3 160.2 712.3 160.2ZM720.8 160.2Q719.6 160.2 718.8 159.6Q718 159.1 717.5 158.2Q717 157.2 717 156Q717 154.7 717.5 153.7Q718 152.8 718.8 152.2Q719.6 151.7 720.8 151.7Q721.9 151.7 722.7 152.2Q723.6 152.8 724 153.7Q724.5 154.7 724.5 156Q724.5 157.2 724 158.2Q723.6 159.1 722.7 159.6Q721.9 160.2 720.8 160.2ZM720.8 159Q721.6 159 722.1 158.6Q722.7 158.1 722.9 157.5Q723.2 156.8 723.2 156Q723.2 155.1 722.9 154.4Q722.7 153.7 722.1 153.3Q721.6 152.9 720.8 152.9Q719.9 152.9 719.4 153.3Q718.9 153.7 718.6 154.4Q718.4 155.1 718.4 156Q718.4 156.8 718.6 157.5Q718.9 158.1 719.4 158.6Q719.9 159 720.8 159ZM727.7 155.1V160H726.4V151.8H727.7L727.7 153.8H727.5Q727.9 152.7 728.6 152.2Q729.3 151.7 730.2 151.7Q731 151.7 731.7 152Q732.3 152.4 732.6 153.1Q733 153.8 733 154.8V160H731.7V154.9Q731.7 154 731.2 153.4Q730.7 152.9 729.8 152.9Q729.2 152.9 728.8 153.2Q728.3 153.4 728 153.9Q727.7 154.4 727.7 155.1Z"/>
<line x1="830.0" y1="134.0" x2="857.0" y2="134.0" stroke="#6366f1" stroke-width="2"/>
<path d="M866.0 134.0 L856.0 129.0 L856.0 139.0 Z" fill="#6366f1"/>
<rect x="872.0" y="74" width="368.0" height="120" rx="16" fill="#111113" fill-opacity="0.92" stroke="#26262b" stroke-width="1.2"/>
<rect x="892.0" y="94" width="22" height="2" fill="#6366f1"/>
<path fill="#f4f4f5" d="M892.3 130 895.6 116H900.6L903.9 130H901.2L900.5 127H895.7L895.1 130ZM896.3 124.5H899.9L898.3 117.3H897.9ZM906 130V116H911.5Q912.9 116 913.8 116.6Q914.8 117.2 915.3 118.1Q915.7 119 915.7 120.1V120.5Q915.7 121.6 915.3 122.5Q914.8 123.5 913.8 124.1Q912.9 124.7 911.5 124.7H908.6V130ZM908.6 122.2H911.2Q912.1 122.2 912.6 121.7Q913.1 121.2 913.1 120.5V120.2Q913.1 119.5 912.6 119Q912.1 118.5 911.2 118.5H908.6ZM918.5 130V116H924Q925.4 116 926.4 116.6Q927.3 117.2 927.8 118.1Q928.3 119 928.3 120.1V120.5Q928.3 121.6 927.8 122.5Q927.3 123.5 926.4 124.1Q925.4 124.7 924 124.7H921.2V130ZM921.2 122.2H923.7Q924.6 122.2 925.1 121.7Q925.6 121.2 925.6 120.5V120.2Q925.6 119.5 925.1 119Q924.6 118.5 923.7 118.5H921.2ZM935.9 130.3Q934.1 130.3 932.8 129.6Q931.6 128.9 931 127.8Q930.3 126.6 930.3 125.2V124.6H933V125Q933 126.3 933.7 127Q934.5 127.8 936 127.8Q937.2 127.8 937.8 127.3Q938.3 126.8 938.3 126Q938.3 125.6 938.1 125.2Q937.9 124.8 937.3 124.5Q936.7 124.2 935.7 124Q934.3 123.8 933.2 123.3Q932.1 122.9 931.4 122Q930.8 121.2 930.8 119.8V119.7Q930.8 118.6 931.4 117.7Q932 116.8 933.1 116.2Q934.2 115.7 935.7 115.7Q937.3 115.7 938.5 116.3Q939.6 116.9 940.2 117.9Q940.8 118.9 940.8 120V120.8H938.1V120.3Q938.1 119.4 937.5 118.8Q936.8 118.2 935.7 118.2Q934.7 118.2 934.1 118.6Q933.5 119 933.5 119.7Q933.5 120.4 934.1 120.9Q934.8 121.3 936.5 121.6Q938.7 122 939.9 123Q941 123.9 941 125.8V126Q941 127.9 939.7 129.1Q938.3 130.3 935.9 130.3Z"/>
<path fill="#a1a1aa" d="M895.9 160.2Q895.1 160.2 894.4 159.9Q893.8 159.7 893.4 159.2Q892.9 158.7 892.8 158L894 157.7Q894.2 158.4 894.7 158.7Q895.2 159 895.9 159Q896.8 159 897.3 158.7Q897.8 158.3 897.8 157.8Q897.8 157.4 897.5 157.1Q897.2 156.8 896.6 156.7L895.2 156.3Q894.1 156.1 893.6 155.5Q893 155 893 154.1Q893 153.4 893.4 152.9Q893.8 152.3 894.5 152Q895.2 151.7 896.1 151.7Q896.9 151.7 897.5 152Q898.1 152.2 898.5 152.7Q898.8 153.1 899 153.7L897.8 154Q897.7 153.5 897.3 153.2Q896.9 152.8 896.1 152.8Q895.3 152.8 894.9 153.2Q894.4 153.5 894.4 154Q894.4 154.5 894.7 154.7Q895 155 895.8 155.2L897 155.5Q898.1 155.7 898.6 156.3Q899.2 156.9 899.2 157.7Q899.2 158.4 898.8 159Q898.4 159.5 897.6 159.9Q896.9 160.2 895.9 160.2ZM904.3 151.8V152.9H900.1V151.8ZM901.3 149.9H902.6V157.9Q902.6 158.4 902.8 158.7Q903.1 158.9 903.6 158.9Q903.7 158.9 903.9 158.9Q904.1 158.9 904.3 158.8L904.5 160Q904.3 160 904.1 160.1Q903.8 160.1 903.5 160.1Q902.5 160.1 901.9 159.5Q901.3 159 901.3 158ZM908.8 160.1Q907.9 160.1 907.3 159.8Q906.7 159.4 906.3 158.7Q906 158 906 157V151.8H907.3V156.9Q907.3 157.8 907.8 158.4Q908.3 158.9 909.2 158.9Q909.7 158.9 910.2 158.7Q910.7 158.4 910.9 157.9Q911.2 157.4 911.2 156.7V151.8H912.5V160H911.3V158H911.4Q911.1 159.2 910.4 159.6Q909.7 160.1 908.8 160.1ZM917.9 160.2Q916.9 160.2 916.1 159.7Q915.3 159.1 914.9 158.2Q914.5 157.2 914.5 155.9Q914.5 154.6 914.9 153.7Q915.3 152.7 916.1 152.2Q916.9 151.7 917.9 151.7Q918.7 151.7 919.2 152Q919.7 152.2 919.9 152.6Q920.2 152.9 920.3 153.1H920.4V149.1H921.7V160H920.4V158.7H920.3Q920.2 159 919.9 159.3Q919.6 159.6 919.2 159.9Q918.7 160.2 917.9 160.2ZM918.1 159Q918.9 159 919.4 158.6Q919.9 158.2 920.2 157.5Q920.4 156.8 920.4 155.9Q920.4 155 920.2 154.3Q919.9 153.6 919.4 153.3Q918.9 152.9 918.1 152.9Q917.3 152.9 916.8 153.3Q916.3 153.7 916.1 154.4Q915.8 155.1 915.8 155.9Q915.8 156.8 916.1 157.5Q916.3 158.2 916.8 158.6Q917.4 159 918.1 159ZM924 160V151.8H925.4V160ZM924.7 150.5Q924.3 150.5 924.1 150.2Q923.8 150 923.8 149.6Q923.8 149.2 924.1 149Q924.3 148.7 924.7 148.7Q925.1 148.7 925.4 149Q925.6 149.2 925.6 149.6Q925.6 150 925.4 150.2Q925.1 150.5 924.7 150.5ZM931 160.2Q929.9 160.2 929 159.6Q928.2 159.1 927.7 158.2Q927.3 157.2 927.3 156Q927.3 154.7 927.7 153.7Q928.2 152.8 929 152.2Q929.9 151.7 931 151.7Q932.1 151.7 933 152.2Q933.8 152.8 934.3 153.7Q934.7 154.7 934.7 156Q934.7 157.2 934.3 158.2Q933.8 159.1 933 159.6Q932.1 160.2 931 160.2ZM931 159Q931.8 159 932.4 158.6Q932.9 158.1 933.2 157.5Q933.4 156.8 933.4 156Q933.4 155.1 933.2 154.4Q932.9 153.7 932.4 153.3Q931.8 152.9 931 152.9Q930.2 152.9 929.7 153.3Q929.1 153.7 928.9 154.4Q928.6 155.1 928.6 156Q928.6 156.8 928.9 157.5Q929.1 158.1 929.7 158.6Q930.2 159 931 159ZM936.4 162.6 937.1 158.5H938.6L937.5 162.6ZM947 160 944.6 151.8H946L947 155.4Q947.2 156.1 947.4 157Q947.6 158 947.9 159.1H947.6Q947.8 158 948.1 157.1Q948.3 156.2 948.5 155.4L949.5 151.8H950.9L951.9 155.4Q952.1 156.1 952.3 157.1Q952.5 158 952.7 159.1H952.5Q952.7 158 953 157.1Q953.2 156.2 953.4 155.4L954.4 151.8H955.8L953.3 160H952L951 156.3Q950.8 155.7 950.6 155.1Q950.5 154.6 950.3 153.9Q950.2 153.3 950 152.7H950.3Q950.2 153.3 950 153.9Q949.9 154.6 949.7 155.2Q949.6 155.7 949.4 156.3L948.4 160ZM957.5 160V151.8H958.8V160ZM958.1 150.5Q957.8 150.5 957.5 150.2Q957.2 150 957.2 149.6Q957.2 149.2 957.5 149Q957.8 148.7 958.1 148.7Q958.5 148.7 958.8 149Q959.1 149.2 959.1 149.6Q959.1 150 958.8 150.2Q958.5 150.5 958.1 150.5ZM964.2 160.2Q963.2 160.2 962.4 159.7Q961.6 159.1 961.2 158.2Q960.7 157.2 960.7 155.9Q960.7 154.6 961.2 153.7Q961.6 152.7 962.4 152.2Q963.2 151.7 964.2 151.7Q965 151.7 965.5 152Q965.9 152.2 966.2 152.6Q966.4 152.9 966.6 153.1H966.7V149.1H968V160H966.7V158.7H966.6Q966.4 159 966.2 159.3Q965.9 159.6 965.4 159.9Q965 160.2 964.2 160.2ZM964.4 159Q965.1 159 965.6 158.6Q966.2 158.2 966.4 157.5Q966.7 156.8 966.7 155.9Q966.7 155 966.4 154.3Q966.2 153.6 965.6 153.3Q965.1 152.9 964.4 152.9Q963.6 152.9 963.1 153.3Q962.6 153.7 962.3 154.4Q962.1 155.1 962.1 155.9Q962.1 156.8 962.3 157.5Q962.6 158.2 963.1 158.6Q963.6 159 964.4 159ZM973.6 163.2Q972.7 163.2 972 163Q971.4 162.8 970.9 162.4Q970.5 162 970.2 161.6L971.3 160.9Q971.5 161.1 971.7 161.4Q972 161.7 972.5 161.9Q972.9 162.1 973.6 162.1Q974.6 162.1 975.2 161.6Q975.9 161.1 975.9 160.1V158.5H975.7Q975.6 158.7 975.3 159.1Q975.1 159.4 974.6 159.6Q974.1 159.9 973.4 159.9Q972.4 159.9 971.6 159.4Q970.8 158.9 970.4 158Q969.9 157.2 969.9 155.9Q969.9 154.6 970.3 153.7Q970.8 152.7 971.6 152.2Q972.4 151.7 973.4 151.7Q974.2 151.7 974.7 152Q975.1 152.2 975.4 152.6Q975.6 152.9 975.8 153.1H975.9V151.8H977.2V160.2Q977.2 161.3 976.7 161.9Q976.2 162.6 975.4 162.9Q974.6 163.2 973.6 163.2ZM973.6 158.7Q974.3 158.7 974.8 158.4Q975.3 158 975.6 157.4Q975.9 156.7 975.9 155.8Q975.9 155 975.6 154.3Q975.4 153.6 974.8 153.3Q974.3 152.9 973.6 152.9Q972.8 152.9 972.3 153.3Q971.8 153.7 971.5 154.4Q971.2 155 971.2 155.8Q971.2 156.7 971.5 157.3Q971.8 158 972.3 158.3Q972.8 158.7 973.6 158.7ZM982.9 160.2Q981.8 160.2 980.9 159.6Q980 159.1 979.6 158.2Q979.1 157.2 979.1 156Q979.1 154.7 979.6 153.8Q980 152.8 980.8 152.3Q981.7 151.7 982.8 151.7Q983.4 151.7 984.1 151.9Q984.7 152.1 985.2 152.6Q985.7 153.1 986 153.9Q986.4 154.7 986.4 155.8V156.4H980V155.2H985.6L985 155.6Q985 154.8 984.8 154.2Q984.5 153.6 984 153.2Q983.5 152.9 982.8 152.9Q982 152.9 981.5 153.2Q981 153.6 980.7 154.2Q980.4 154.8 980.4 155.4V156.2Q980.4 157.1 980.7 157.7Q981.1 158.4 981.6 158.7Q982.2 159 982.9 159Q983.4 159 983.8 158.9Q984.2 158.7 984.5 158.4Q984.8 158.2 984.9 157.7L986.2 158.1Q986 158.7 985.6 159.2Q985.1 159.6 984.4 159.9Q983.8 160.2 982.9 160.2ZM991.5 151.8V152.9H987.2V151.8ZM988.5 149.9H989.8V157.9Q989.8 158.4 990 158.7Q990.2 158.9 990.7 158.9Q990.9 158.9 991.1 158.9Q991.3 158.9 991.4 158.8L991.7 160Q991.5 160 991.2 160.1Q991 160.1 990.7 160.1Q989.6 160.1 989.1 159.5Q988.5 159 988.5 158ZM995.9 160.2Q995.1 160.2 994.4 159.9Q993.8 159.7 993.4 159.2Q992.9 158.7 992.8 158L994 157.7Q994.2 158.4 994.7 158.7Q995.2 159 995.9 159Q996.8 159 997.3 158.7Q997.8 158.3 997.8 157.8Q997.8 157.4 997.5 157.1Q997.2 156.8 996.6 156.7L995.2 156.3Q994.1 156.1 993.6 155.5Q993 155 993 154.1Q993 153.4 993.4 152.9Q993.8 152.3 994.5 152Q995.2 151.7 996.1 151.7Q996.9 151.7 997.5 152Q998.1 152.2 998.5 152.7Q998.8 153.1 999 153.7L997.8 154Q997.6 153.5 997.3 153.2Q996.9 152.8 996.1 152.8Q995.3 152.8 994.9 153.2Q994.4 153.5 994.4 154Q994.4 154.5 994.7 154.7Q995 155 995.7 155.2L997 155.5Q998.1 155.7 998.6 156.3Q999.2 156.9 999.2 157.7Q999.2 158.4 998.8 159Q998.3 159.5 997.6 159.9Q996.9 160.2 995.9 160.2ZM1000.8 162.6 1001.5 158.5H1003L1001.9 162.6ZM1013.3 160.2Q1012.1 160.2 1011.2 159.8Q1010.3 159.4 1009.9 158.7Q1009.4 158.1 1009.3 157.1H1010.7Q1010.8 157.8 1011.1 158.2Q1011.5 158.6 1012.1 158.8Q1012.6 158.9 1013.3 158.9Q1014 158.9 1014.6 158.7Q1015.2 158.5 1015.5 158Q1015.9 157.6 1015.9 157Q1015.9 156.5 1015.6 156.1Q1015.3 155.8 1014.8 155.6Q1014.3 155.4 1013.7 155.2L1012.4 154.9Q1011.1 154.5 1010.3 153.8Q1009.6 153.1 1009.6 152Q1009.6 151.1 1010.1 150.4Q1010.6 149.7 1011.5 149.3Q1012.3 148.9 1013.4 148.9Q1014.4 148.9 1015.3 149.3Q1016.1 149.7 1016.6 150.4Q1017 151 1017.1 151.8H1015.7Q1015.6 151 1015 150.6Q1014.3 150.2 1013.3 150.2Q1012.6 150.2 1012.1 150.4Q1011.5 150.6 1011.3 151Q1011 151.4 1011 151.9Q1011 152.5 1011.3 152.9Q1011.7 153.2 1012.2 153.4Q1012.6 153.6 1013 153.7L1014.1 154Q1014.6 154.1 1015.1 154.3Q1015.6 154.5 1016.1 154.9Q1016.6 155.2 1016.9 155.7Q1017.2 156.3 1017.2 157Q1017.2 157.9 1016.8 158.6Q1016.3 159.4 1015.4 159.8Q1014.5 160.2 1013.3 160.2ZM1022.8 160H1020.2V158.8H1022.7Q1024 158.8 1024.9 158.3Q1025.8 157.8 1026.2 156.8Q1026.7 155.8 1026.7 154.5Q1026.7 153.2 1026.2 152.3Q1025.8 151.3 1025 150.8Q1024.1 150.3 1022.8 150.3H1020.1V149.1H1022.9Q1024.5 149.1 1025.7 149.7Q1026.8 150.4 1027.4 151.6Q1028 152.8 1028 154.5Q1028 156.2 1027.4 157.5Q1026.8 158.7 1025.6 159.3Q1024.5 160 1022.8 160ZM1020.8 149.1V160H1019.4V149.1ZM1031.2 156.9V155.4Q1031.5 154.9 1031.9 154.4Q1032.3 153.9 1032.7 153.5Q1033.1 153 1033.5 152.6L1036.7 149.1H1038.6L1033.9 154.1L1033.8 154.1ZM1030.2 160V149.1H1031.6V152.8L1031.6 155.2L1031.6 155.9V160ZM1036.9 160 1033 154.4 1033.8 153.4 1038.6 160ZM1046.6 160.2Q1045.9 160.2 1045.2 159.9Q1044.6 159.6 1044.2 159Q1043.9 158.5 1043.9 157.7Q1043.9 157 1044.1 156.5Q1044.4 156.1 1044.9 155.8Q1045.3 155.6 1045.9 155.5Q1046.5 155.3 1047 155.3Q1047.8 155.2 1048.2 155.1Q1048.7 155.1 1048.9 154.9Q1049.1 154.8 1049.1 154.5V154.5Q1049.1 154 1049 153.6Q1048.8 153.2 1048.4 153.1Q1048 152.9 1047.4 152.9Q1046.8 152.9 1046.4 153Q1046 153.2 1045.7 153.5Q1045.5 153.8 1045.4 154.1L1044.1 153.6Q1044.4 152.9 1044.9 152.5Q1045.5 152.1 1046.1 151.9Q1046.8 151.7 1047.4 151.7Q1047.8 151.7 1048.3 151.8Q1048.8 151.9 1049.3 152.2Q1049.8 152.5 1050.1 153.1Q1050.5 153.6 1050.5 154.6V160H1049.2V158.9H1049.1Q1048.9 159.2 1048.6 159.5Q1048.3 159.8 1047.8 160Q1047.3 160.2 1046.6 160.2ZM1046.9 159Q1047.6 159 1048.1 158.7Q1048.6 158.5 1048.9 158Q1049.1 157.5 1049.1 157V155.9Q1049.1 156 1048.8 156.1Q1048.5 156.2 1048.2 156.2Q1047.8 156.3 1047.5 156.3Q1047.2 156.4 1047 156.4Q1046.5 156.4 1046.1 156.6Q1045.7 156.7 1045.4 157Q1045.2 157.3 1045.2 157.7Q1045.2 158.2 1045.4 158.4Q1045.6 158.7 1046 158.9Q1046.4 159 1046.9 159ZM1052.8 163.1V151.8H1054V153.1H1054.2Q1054.3 152.9 1054.6 152.6Q1054.8 152.2 1055.3 152Q1055.8 151.7 1056.6 151.7Q1057.6 151.7 1058.4 152.2Q1059.2 152.7 1059.6 153.7Q1060 154.6 1060 155.9Q1060 157.2 1059.6 158.2Q1059.2 159.1 1058.4 159.7Q1057.6 160.2 1056.6 160.2Q1055.8 160.2 1055.3 159.9Q1054.8 159.6 1054.6 159.3Q1054.3 159 1054.2 158.7H1054.1V163.1ZM1056.4 159Q1057.1 159 1057.7 158.6Q1058.2 158.2 1058.4 157.5Q1058.7 156.8 1058.7 155.9Q1058.7 155.1 1058.4 154.4Q1058.2 153.7 1057.7 153.3Q1057.2 152.9 1056.4 152.9Q1055.6 152.9 1055.1 153.3Q1054.6 153.6 1054.3 154.3Q1054.1 155 1054.1 155.9Q1054.1 156.8 1054.3 157.5Q1054.6 158.2 1055.1 158.6Q1055.6 159 1056.4 159ZM1062 163.1V151.8H1063.2V153.1H1063.4Q1063.5 152.9 1063.8 152.6Q1064 152.2 1064.5 152Q1065 151.7 1065.8 151.7Q1066.8 151.7 1067.6 152.2Q1068.3 152.7 1068.8 153.7Q1069.2 154.6 1069.2 155.9Q1069.2 157.2 1068.8 158.2Q1068.3 159.1 1067.6 159.7Q1066.8 160.2 1065.8 160.2Q1065 160.2 1064.5 159.9Q1064 159.6 1063.8 159.3Q1063.5 159 1063.4 158.7H1063.3V163.1ZM1065.6 159Q1066.3 159 1066.8 158.6Q1067.4 158.2 1067.6 157.5Q1067.9 156.8 1067.9 155.9Q1067.9 155.1 1067.6 154.4Q1067.4 153.7 1066.9 153.3Q1066.3 152.9 1065.6 152.9Q1064.8 152.9 1064.3 153.3Q1063.8 153.6 1063.5 154.3Q1063.3 155 1063.3 155.9Q1063.3 156.8 1063.5 157.5Q1063.8 158.2 1064.3 158.6Q1064.8 159 1065.6 159ZM1073.9 160.2Q1073.1 160.2 1072.4 159.9Q1071.8 159.7 1071.3 159.2Q1070.9 158.7 1070.8 158L1072 157.7Q1072.2 158.4 1072.7 158.7Q1073.2 159 1073.9 159Q1074.8 159 1075.3 158.7Q1075.8 158.3 1075.8 157.8Q1075.8 157.4 1075.5 157.1Q1075.2 156.8 1074.6 156.7L1073.2 156.3Q1072.1 156.1 1071.6 155.5Q1071 155 1071 154.1Q1071 153.4 1071.4 152.9Q1071.8 152.3 1072.5 152Q1073.2 151.7 1074.1 151.7Q1074.9 151.7 1075.5 152Q1076.1 152.2 1076.4 152.7Q1076.8 153.1 1077 153.7L1075.8 154Q1075.6 153.5 1075.2 153.2Q1074.9 152.8 1074.1 152.8Q1073.3 152.8 1072.8 153.2Q1072.4 153.5 1072.4 154Q1072.4 154.5 1072.7 154.7Q1073 155 1073.7 155.2L1075 155.5Q1076.1 155.7 1076.6 156.3Q1077.2 156.9 1077.2 157.7Q1077.2 158.4 1076.7 159Q1076.3 159.5 1075.6 159.9Q1074.9 160.2 1073.9 160.2Z"/>
<path fill="#71717a" d="M44.7 219.3V220.5H40.2V219.3ZM41.5 217.2H42.9V225.7Q42.9 226.3 43.1 226.6Q43.4 226.9 43.9 226.9Q44 226.9 44.2 226.8Q44.5 226.8 44.6 226.8L44.9 228Q44.7 228 44.4 228.1Q44.1 228.1 43.9 228.1Q42.7 228.1 42.1 227.5Q41.5 226.9 41.5 225.8ZM47.9 222.8V228H46.5V216.4H47.9V221.4H47.6Q48 220.2 48.8 219.7Q49.5 219.2 50.5 219.2Q51.4 219.2 52.1 219.5Q52.7 219.9 53.1 220.6Q53.5 221.3 53.5 222.5V228H52V222.6Q52 221.6 51.5 221Q51 220.4 50.1 220.4Q49.5 220.4 49 220.7Q48.5 221 48.2 221.5Q47.9 222 47.9 222.8ZM59.6 228.2Q58.3 228.2 57.4 227.6Q56.5 227.1 56 226.1Q55.5 225 55.5 223.7Q55.5 222.4 56 221.3Q56.5 220.3 57.4 219.7Q58.2 219.2 59.4 219.2Q60.1 219.2 60.8 219.4Q61.5 219.6 62 220.1Q62.6 220.6 62.9 221.5Q63.2 222.3 63.2 223.5V224.1H56.5V222.9H62.5L61.8 223.4Q61.8 222.5 61.6 221.8Q61.3 221.2 60.8 220.8Q60.2 220.4 59.4 220.4Q58.6 220.4 58.1 220.8Q57.5 221.2 57.2 221.8Q56.9 222.4 56.9 223.1V223.9Q56.9 224.9 57.3 225.6Q57.6 226.2 58.2 226.6Q58.8 226.9 59.6 226.9Q60.1 226.9 60.5 226.8Q61 226.6 61.3 226.3Q61.6 226 61.7 225.6L63.1 226Q62.9 226.6 62.4 227.1Q61.9 227.6 61.2 227.9Q60.5 228.2 59.6 228.2ZM65.3 228V219.3H66.6L66.6 221.2H66.5Q66.7 220.5 67.1 220Q67.5 219.6 68 219.3Q68.5 219.1 69.1 219.1Q70 219.1 70.6 219.7Q71.2 220.3 71.4 221.2H71.2Q71.4 220.6 71.8 220.1Q72.2 219.6 72.8 219.4Q73.4 219.1 74.1 219.1Q74.8 219.1 75.4 219.4Q76.1 219.8 76.4 220.4Q76.8 221.1 76.8 222.1V228H75.4V222.1Q75.4 221.2 74.9 220.8Q74.3 220.4 73.6 220.4Q73 220.4 72.6 220.6Q72.2 220.9 72 221.3Q71.7 221.7 71.7 222.3V228H70.3V222Q70.3 221.3 69.8 220.8Q69.4 220.4 68.6 220.4Q68.1 220.4 67.7 220.6Q67.2 220.9 66.9 221.3Q66.7 221.8 66.7 222.5V228ZM82.9 228.2Q81.7 228.2 80.8 227.6Q79.8 227.1 79.3 226.1Q78.9 225 78.9 223.7Q78.9 222.4 79.3 221.3Q79.8 220.3 80.7 219.7Q81.6 219.2 82.8 219.2Q83.5 219.2 84.2 219.4Q84.8 219.6 85.4 220.1Q85.9 220.6 86.3 221.5Q86.6 222.3 86.6 223.5V224.1H79.8V222.9H85.8L85.2 223.4Q85.2 222.5 84.9 221.8Q84.6 221.2 84.1 220.8Q83.6 220.4 82.8 220.4Q82 220.4 81.4 220.8Q80.9 221.2 80.6 221.8Q80.3 222.4 80.3 223.1V223.9Q80.3 224.9 80.6 225.6Q80.9 226.2 81.6 226.6Q82.2 226.9 83 226.9Q83.5 226.9 83.9 226.8Q84.3 226.6 84.6 226.3Q84.9 226 85.1 225.6L86.4 226Q86.2 226.6 85.8 227.1Q85.3 227.6 84.6 227.9Q83.8 228.2 82.9 228.2ZM91.6 228.2Q90.7 228.2 90 227.9Q89.3 227.7 88.8 227.1Q88.4 226.6 88.2 225.9L89.5 225.6Q89.7 226.3 90.3 226.6Q90.8 227 91.6 227Q92.5 227 93 226.6Q93.6 226.2 93.6 225.6Q93.6 225.2 93.2 224.9Q92.9 224.6 92.3 224.4L90.8 224.1Q89.6 223.8 89.1 223.2Q88.5 222.6 88.5 221.7Q88.5 221 88.9 220.4Q89.3 219.8 90.1 219.5Q90.8 219.2 91.7 219.2Q92.6 219.2 93.2 219.4Q93.9 219.7 94.3 220.2Q94.7 220.6 94.9 221.3L93.6 221.6Q93.4 221.1 93 220.7Q92.6 220.4 91.7 220.4Q90.9 220.4 90.4 220.7Q89.9 221.1 89.9 221.6Q89.9 222.1 90.2 222.4Q90.6 222.7 91.4 222.9L92.7 223.2Q93.9 223.5 94.4 224.1Q95 224.6 95 225.5Q95 226.3 94.6 226.9Q94.1 227.5 93.4 227.8Q92.6 228.2 91.6 228.2ZM104.8 228.2Q103.7 228.2 102.9 227.6Q102.1 227.1 101.6 226.1Q101.1 225 101.1 223.7Q101.1 222.3 101.6 221.3Q102.1 220.2 102.9 219.7Q103.7 219.2 104.8 219.2Q105.7 219.2 106.2 219.4Q106.7 219.7 106.9 220.1Q107.2 220.4 107.4 220.7H107.5V216.4H108.9V228H107.5V226.6H107.4Q107.2 226.9 106.9 227.3Q106.7 227.6 106.2 227.9Q105.7 228.2 104.8 228.2ZM105 226.9Q105.8 226.9 106.4 226.5Q106.9 226.1 107.2 225.4Q107.5 224.6 107.5 223.6Q107.5 222.7 107.2 221.9Q106.9 221.2 106.4 220.8Q105.8 220.4 105 220.4Q104.2 220.4 103.7 220.8Q103.1 221.3 102.8 222Q102.6 222.7 102.6 223.6Q102.6 224.6 102.8 225.3Q103.1 226 103.7 226.5Q104.2 226.9 105 226.9ZM115 228.2Q113.8 228.2 112.8 227.6Q111.9 227.1 111.4 226.1Q110.9 225 110.9 223.7Q110.9 222.4 111.4 221.3Q111.9 220.3 112.8 219.7Q113.7 219.2 114.9 219.2Q115.5 219.2 116.2 219.4Q116.9 219.6 117.4 220.1Q118 220.6 118.3 221.5Q118.7 222.3 118.7 223.5V224.1H111.9V222.9H117.9L117.2 223.4Q117.2 222.5 117 221.8Q116.7 221.2 116.2 220.8Q115.6 220.4 114.9 220.4Q114.1 220.4 113.5 220.8Q112.9 221.2 112.6 221.8Q112.3 222.4 112.3 223.1V223.9Q112.3 224.9 112.7 225.6Q113 226.2 113.6 226.6Q114.2 226.9 115 226.9Q115.5 226.9 116 226.8Q116.4 226.6 116.7 226.3Q117 226 117.2 225.6L118.5 226Q118.3 226.6 117.8 227.1Q117.3 227.6 116.6 227.9Q115.9 228.2 115 228.2ZM124.7 219.3V220.5H119.6V219.3ZM121.3 228V218.1Q121.3 217.3 121.7 216.8Q122 216.3 122.6 216.1Q123.2 215.8 123.8 215.8Q124.3 215.8 124.6 215.9Q125 216 125.1 216L124.7 217.2Q124.6 217.2 124.4 217.2Q124.3 217.1 124 217.1Q123.3 217.1 123 217.4Q122.7 217.8 122.7 218.4V228ZM129 228.2Q128.2 228.2 127.5 227.9Q126.9 227.6 126.5 227Q126.1 226.4 126.1 225.5Q126.1 224.8 126.4 224.3Q126.7 223.8 127.2 223.6Q127.6 223.3 128.2 223.2Q128.9 223 129.5 222.9Q130.2 222.8 130.7 222.8Q131.2 222.7 131.5 222.6Q131.7 222.5 131.7 222.1V222.1Q131.7 221.6 131.5 221.2Q131.3 220.8 130.9 220.6Q130.5 220.4 129.9 220.4Q129.2 220.4 128.8 220.6Q128.4 220.8 128.1 221.1Q127.8 221.4 127.7 221.7L126.3 221.2Q126.6 220.4 127.2 220Q127.8 219.5 128.5 219.3Q129.2 219.2 129.8 219.2Q130.3 219.2 130.8 219.3Q131.4 219.4 131.9 219.7Q132.4 220 132.8 220.6Q133.1 221.2 133.1 222.2V228H131.7V226.8H131.6Q131.5 227.1 131.2 227.4Q130.8 227.8 130.3 228Q129.8 228.2 129 228.2ZM129.3 227Q130.1 227 130.6 226.7Q131.1 226.4 131.4 225.9Q131.7 225.4 131.7 224.8V223.6Q131.6 223.7 131.3 223.8Q131 223.9 130.7 224Q130.3 224 129.9 224.1Q129.6 224.1 129.4 224.1Q128.9 224.2 128.4 224.3Q128 224.5 127.7 224.8Q127.5 225.1 127.5 225.6Q127.5 226 127.7 226.3Q127.9 226.6 128.4 226.8Q128.8 227 129.3 227ZM138.5 228.1Q137.7 228.1 137 227.7Q136.3 227.4 135.9 226.6Q135.6 225.9 135.6 224.8V219.3H137V224.7Q137 225.7 137.5 226.3Q138 226.8 139 226.8Q139.6 226.8 140.1 226.6Q140.6 226.3 140.9 225.8Q141.2 225.2 141.2 224.5V219.3H142.6V228H141.2V225.9H141.4Q141 227.1 140.2 227.6Q139.5 228.1 138.5 228.1ZM146.4 216.4V228H145V216.4ZM152.4 219.3V220.5H147.8V219.3ZM149.1 217.2H150.6V225.7Q150.6 226.3 150.8 226.6Q151 226.9 151.6 226.9Q151.7 226.9 151.9 226.8Q152.1 226.8 152.3 226.8L152.6 228Q152.4 228 152.1 228.1Q151.8 228.1 151.5 228.1Q150.4 228.1 149.8 227.5Q149.1 226.9 149.1 225.8ZM162 227.2V219.7H163.4V227.2ZM158.9 224.1V222.8H166.5V224.1ZM177.3 228.2Q176.1 228.2 175.2 227.6Q174.3 227.1 173.8 226Q173.3 225 173.3 223.7Q173.3 222.3 173.8 221.3Q174.3 220.3 175.2 219.7Q176.1 219.2 177.3 219.2Q177.9 219.2 178.5 219.3Q179 219.5 179.5 219.8Q180 220.1 180.3 220.6Q180.6 221 180.8 221.6L179.5 222Q179.4 221.6 179.2 221.3Q179 221.1 178.7 220.8Q178.4 220.6 178.1 220.5Q177.7 220.4 177.3 220.4Q176.4 220.4 175.9 220.9Q175.3 221.3 175 222.1Q174.7 222.8 174.7 223.7Q174.7 224.5 175 225.3Q175.3 226 175.9 226.5Q176.4 226.9 177.3 226.9Q177.7 226.9 178.1 226.8Q178.5 226.7 178.7 226.5Q179 226.3 179.2 226Q179.4 225.7 179.5 225.3L180.9 225.7Q180.7 226.3 180.3 226.7Q180 227.2 179.5 227.5Q179.1 227.9 178.5 228Q177.9 228.2 177.3 228.2ZM186.4 228.2Q185.2 228.2 184.3 227.6Q183.5 227.1 183 226Q182.5 225 182.5 223.7Q182.5 222.3 183 221.3Q183.5 220.3 184.3 219.7Q185.2 219.2 186.4 219.2Q187.6 219.2 188.5 219.7Q189.4 220.3 189.9 221.3Q190.4 222.3 190.4 223.7Q190.4 225 189.9 226Q189.4 227.1 188.5 227.6Q187.6 228.2 186.4 228.2ZM186.4 226.9Q187.3 226.9 187.9 226.5Q188.5 226 188.7 225.3Q189 224.5 189 223.7Q189 222.8 188.7 222.1Q188.5 221.3 187.9 220.9Q187.3 220.4 186.4 220.4Q185.6 220.4 185 220.9Q184.4 221.3 184.2 222.1Q183.9 222.8 183.9 223.7Q183.9 224.5 184.2 225.3Q184.4 226 185 226.5Q185.6 226.9 186.4 226.9ZM193.9 222.8V228H192.5V219.3H193.8L193.8 221.4H193.6Q194 220.2 194.8 219.7Q195.5 219.2 196.5 219.2Q197.4 219.2 198 219.5Q198.7 219.9 199.1 220.6Q199.5 221.3 199.5 222.5V228H198V222.6Q198 221.6 197.5 221Q197 220.4 196.1 220.4Q195.5 220.4 195 220.7Q194.5 221 194.2 221.5Q193.9 222 193.9 222.8ZM205.4 219.3V220.5H200.8V219.3ZM202.2 217.2H203.6V225.7Q203.6 226.3 203.8 226.6Q204 226.9 204.6 226.9Q204.7 226.9 204.9 226.8Q205.1 226.8 205.3 226.8L205.6 228Q205.4 228 205.1 228.1Q204.8 228.1 204.6 228.1Q203.4 228.1 202.8 227.5Q202.2 226.9 202.2 225.8ZM207.2 228V219.3H208.5V220.6H208.6Q208.9 219.9 209.5 219.5Q210.1 219.1 210.9 219.1Q211 219.1 211.2 219.1Q211.5 219.2 211.6 219.2V220.6Q211.5 220.6 211.3 220.5Q211 220.5 210.7 220.5Q210.1 220.5 209.6 220.8Q209.1 221 208.8 221.5Q208.6 221.9 208.6 222.5V228ZM215.6 228.2Q214.8 228.2 214.1 227.9Q213.4 227.6 213 227Q212.6 226.4 212.6 225.5Q212.6 224.8 212.9 224.3Q213.2 223.8 213.7 223.6Q214.2 223.3 214.8 223.2Q215.4 223 216 222.9Q216.8 222.8 217.3 222.8Q217.8 222.7 218.1 222.6Q218.3 222.5 218.3 222.1V222.1Q218.3 221.6 218.1 221.2Q217.9 220.8 217.5 220.6Q217.1 220.4 216.5 220.4Q215.8 220.4 215.4 220.6Q214.9 220.8 214.7 221.1Q214.4 221.4 214.2 221.7L212.9 221.2Q213.2 220.4 213.8 220Q214.4 219.5 215.1 219.3Q215.8 219.2 216.4 219.2Q216.9 219.2 217.4 219.3Q218 219.4 218.5 219.7Q219 220 219.4 220.6Q219.7 221.2 219.7 222.2V228H218.3V226.8H218.2Q218.1 227.1 217.7 227.4Q217.4 227.8 216.9 228Q216.4 228.2 215.6 228.2ZM215.9 227Q216.6 227 217.2 226.7Q217.7 226.4 218 225.9Q218.3 225.4 218.3 224.8V223.6Q218.2 223.7 217.9 223.8Q217.6 223.9 217.3 224Q216.9 224 216.5 224.1Q216.2 224.1 216 224.1Q215.5 224.2 215 224.3Q214.6 224.5 214.3 224.8Q214.1 225.1 214.1 225.6Q214.1 226 214.3 226.3Q214.5 226.6 214.9 226.8Q215.3 227 215.9 227ZM225.1 228.2Q224.2 228.2 223.5 227.9Q222.8 227.7 222.4 227.1Q221.9 226.6 221.8 225.9L223.1 225.6Q223.3 226.3 223.8 226.6Q224.3 227 225.1 227Q226 227 226.6 226.6Q227.1 226.2 227.1 225.6Q227.1 225.2 226.8 224.9Q226.5 224.6 225.8 224.4L224.4 224.1Q223.2 223.8 222.6 223.2Q222 222.6 222 221.7Q222 221 222.5 220.4Q222.9 219.8 223.6 219.5Q224.3 219.2 225.3 219.2Q226.2 219.2 226.8 219.4Q227.4 219.7 227.8 220.2Q228.2 220.6 228.4 221.3L227.1 221.6Q227 221.1 226.5 220.7Q226.1 220.4 225.3 220.4Q224.5 220.4 224 220.7Q223.5 221.1 223.5 221.6Q223.5 222.1 223.8 222.4Q224.2 222.7 224.9 222.9L226.2 223.2Q227.4 223.5 228 224.1Q228.6 224.6 228.6 225.5Q228.6 226.3 228.1 226.9Q227.7 227.5 226.9 227.8Q226.2 228.2 225.1 228.2ZM234 219.3V220.5H229.5V219.3ZM230.8 217.2H232.2V225.7Q232.2 226.3 232.5 226.6Q232.7 226.9 233.3 226.9Q233.4 226.9 233.6 226.8Q233.8 226.8 234 226.8L234.3 228Q234.1 228 233.8 228.1Q233.5 228.1 233.2 228.1Q232.1 228.1 231.5 227.5Q230.8 226.9 230.8 225.8ZM236.9 228.1Q236.5 228.1 236.2 227.8Q235.9 227.5 235.9 227Q235.9 226.6 236.2 226.3Q236.5 226 236.9 226Q237.4 226 237.7 226.3Q238 226.6 238 227Q238 227.5 237.7 227.8Q237.4 228.1 236.9 228.1ZM245 228V219.3H246.3L246.3 221.2H246.2Q246.4 220.5 246.8 220Q247.2 219.6 247.7 219.3Q248.2 219.1 248.8 219.1Q249.7 219.1 250.3 219.7Q250.9 220.3 251.1 221.2H250.9Q251 220.6 251.5 220.1Q251.9 219.6 252.5 219.4Q253.1 219.1 253.8 219.1Q254.5 219.1 255.1 219.4Q255.8 219.8 256.1 220.4Q256.5 221.1 256.5 222.1V228H255.1V222.1Q255.1 221.2 254.6 220.8Q254 220.4 253.3 220.4Q252.7 220.4 252.3 220.6Q251.9 220.9 251.7 221.3Q251.4 221.7 251.4 222.3V228H250V222Q250 221.3 249.5 220.8Q249.1 220.4 248.3 220.4Q247.8 220.4 247.4 220.6Q246.9 220.9 246.6 221.3Q246.4 221.8 246.4 222.5V228ZM262.5 228.2Q261.3 228.2 260.4 227.6Q259.5 227.1 259 226Q258.5 225 258.5 223.7Q258.5 222.3 259 221.3Q259.5 220.3 260.4 219.7Q261.3 219.2 262.5 219.2Q263.7 219.2 264.6 219.7Q265.5 220.3 266 221.3Q266.5 222.3 266.5 223.7Q266.5 225 266 226Q265.5 227.1 264.6 227.6Q263.7 228.2 262.5 228.2ZM262.5 226.9Q263.4 226.9 264 226.5Q264.5 226 264.8 225.3Q265.1 224.5 265.1 223.7Q265.1 222.8 264.8 222.1Q264.5 221.3 264 220.9Q263.4 220.4 262.5 220.4Q261.6 220.4 261.1 220.9Q260.5 221.3 260.2 222.1Q260 222.8 260 223.7Q260 224.5 260.2 225.3Q260.5 226 261.1 226.5Q261.6 226.9 262.5 226.9ZM271.8 228.2Q270.8 228.2 269.9 227.6Q269.1 227.1 268.6 226.1Q268.1 225 268.1 223.7Q268.1 222.3 268.6 221.3Q269.1 220.2 269.9 219.7Q270.8 219.2 271.8 219.2Q272.7 219.2 273.2 219.4Q273.7 219.7 274 220.1Q274.2 220.4 274.4 220.7H274.5V216.4H275.9V228H274.5V226.6H274.4Q274.2 226.9 274 227.3Q273.7 227.6 273.2 227.9Q272.7 228.2 271.8 228.2ZM272 226.9Q272.8 226.9 273.4 226.5Q273.9 226.1 274.2 225.4Q274.5 224.6 274.5 223.6Q274.5 222.7 274.2 221.9Q273.9 221.2 273.4 220.8Q272.9 220.4 272 220.4Q271.2 220.4 270.7 220.8Q270.1 221.3 269.8 222Q269.6 222.7 269.6 223.6Q269.6 224.6 269.8 225.3Q270.1 226 270.7 226.5Q271.2 226.9 272 226.9ZM282 228.2Q280.8 228.2 279.8 227.6Q278.9 227.1 278.4 226.1Q277.9 225 277.9 223.7Q277.9 222.4 278.4 221.3Q278.9 220.3 279.8 219.7Q280.7 219.2 281.9 219.2Q282.6 219.2 283.2 219.4Q283.9 219.6 284.5 220.1Q285 220.6 285.3 221.5Q285.7 222.3 285.7 223.5V224.1H278.9V222.9H284.9L284.3 223.4Q284.3 222.5 284 221.8Q283.7 221.2 283.2 220.8Q282.7 220.4 281.9 220.4Q281.1 220.4 280.5 220.8Q280 221.2 279.7 221.8Q279.4 222.4 279.4 223.1V223.9Q279.4 224.9 279.7 225.6Q280 226.2 280.6 226.6Q281.2 226.9 282 226.9Q282.6 226.9 283 226.8Q283.4 226.6 283.7 226.3Q284 226 284.2 225.6L285.5 226Q285.3 226.6 284.8 227.1Q284.4 227.6 283.6 227.9Q282.9 228.2 282 228.2ZM290.7 228.2Q289.8 228.2 289.1 227.9Q288.4 227.7 287.9 227.1Q287.5 226.6 287.3 225.9L288.6 225.6Q288.8 226.3 289.3 226.6Q289.9 227 290.6 227Q291.6 227 292.1 226.6Q292.6 226.2 292.6 225.6Q292.6 225.2 292.3 224.9Q292 224.6 291.4 224.4L289.9 224.1Q288.7 223.8 288.1 223.2Q287.6 222.6 287.6 221.7Q287.6 221 288 220.4Q288.4 219.8 289.1 219.5Q289.9 219.2 290.8 219.2Q291.7 219.2 292.3 219.4Q293 219.7 293.3 220.2Q293.7 220.6 293.9 221.3L292.7 221.6Q292.5 221.1 292.1 220.7Q291.6 220.4 290.8 220.4Q290 220.4 289.5 220.7Q289 221.1 289 221.6Q289 222.1 289.3 222.4Q289.7 222.7 290.5 222.9L291.8 223.2Q293 223.5 293.5 224.1Q294.1 224.6 294.1 225.5Q294.1 226.3 293.7 226.9Q293.2 227.5 292.5 227.8Q291.7 228.2 290.7 228.2ZM302 216.4V228H300.6V216.4ZM304.5 228V219.3H305.9V228ZM305.2 217.8Q304.8 217.8 304.5 217.6Q304.2 217.3 304.2 216.9Q304.2 216.5 304.5 216.2Q304.8 216 305.2 216Q305.6 216 305.9 216.2Q306.2 216.5 306.2 216.9Q306.2 217.3 305.9 217.6Q305.6 217.8 305.2 217.8ZM311.9 231.5Q311 231.5 310.2 231.2Q309.5 231 309.1 230.6Q308.6 230.1 308.3 229.7L309.5 228.9Q309.7 229.2 309.9 229.5Q310.2 229.8 310.7 230Q311.2 230.2 311.9 230.2Q313 230.2 313.6 229.7Q314.3 229.2 314.3 228.1V226.4H314.2Q314 226.6 313.8 227Q313.5 227.3 313 227.6Q312.5 227.9 311.6 227.9Q310.6 227.9 309.8 227.4Q308.9 226.9 308.4 225.9Q308 225 308 223.6Q308 222.2 308.4 221.2Q308.9 220.2 309.8 219.7Q310.6 219.2 311.7 219.2Q312.5 219.2 313 219.4Q313.5 219.7 313.8 220.1Q314.1 220.4 314.2 220.7H314.4V219.3H315.7V228.2Q315.7 229.4 315.2 230.1Q314.7 230.8 313.8 231.1Q313 231.5 311.9 231.5ZM311.9 226.6Q312.7 226.6 313.2 226.2Q313.8 225.9 314.1 225.2Q314.3 224.5 314.3 223.6Q314.3 222.6 314.1 221.9Q313.8 221.2 313.2 220.8Q312.7 220.4 311.9 220.4Q311.1 220.4 310.5 220.8Q309.9 221.3 309.7 222Q309.4 222.7 309.4 223.6Q309.4 224.5 309.7 225.1Q310 225.8 310.5 226.2Q311.1 226.6 311.9 226.6ZM319.6 222.8V228H318.2V216.4H319.6V221.4H319.4Q319.8 220.2 320.5 219.7Q321.2 219.2 322.2 219.2Q323.1 219.2 323.8 219.5Q324.4 219.9 324.8 220.6Q325.2 221.3 325.2 222.5V228H323.8V222.6Q323.8 221.6 323.2 221Q322.7 220.4 321.8 220.4Q321.2 220.4 320.7 220.7Q320.2 221 319.9 221.5Q319.6 222 319.6 222.8ZM331.1 219.3V220.5H326.6V219.3ZM327.9 217.2H329.3V225.7Q329.3 226.3 329.5 226.6Q329.8 226.9 330.3 226.9Q330.5 226.9 330.7 226.8Q330.9 226.8 331 226.8L331.3 228Q331.1 228 330.8 228.1Q330.6 228.1 330.3 228.1Q329.2 228.1 328.5 227.5Q327.9 226.9 327.9 225.8ZM332.7 230.8 333.3 226.4H335L333.7 230.8ZM345.3 228.2Q344.2 228.2 343.4 227.6Q342.5 227.1 342 226.1Q341.6 225 341.6 223.7Q341.6 222.3 342.1 221.3Q342.5 220.2 343.4 219.7Q344.2 219.2 345.3 219.2Q346.1 219.2 346.6 219.4Q347.1 219.7 347.4 220.1Q347.7 220.4 347.8 220.7H347.9V216.4H349.3V228H348V226.6H347.8Q347.7 226.9 347.4 227.3Q347.1 227.6 346.6 227.9Q346.1 228.2 345.3 228.2ZM345.5 226.9Q346.3 226.9 346.8 226.5Q347.4 226.1 347.7 225.4Q347.9 224.6 347.9 223.6Q347.9 222.7 347.7 221.9Q347.4 221.2 346.8 220.8Q346.3 220.4 345.5 220.4Q344.7 220.4 344.1 220.8Q343.6 221.3 343.3 222Q343 222.7 343 223.6Q343 224.6 343.3 225.3Q343.6 226 344.1 226.5Q344.7 226.9 345.5 226.9ZM354.2 228.2Q353.4 228.2 352.7 227.9Q352.1 227.6 351.7 227Q351.3 226.4 351.3 225.5Q351.3 224.8 351.6 224.3Q351.9 223.8 352.4 223.6Q352.9 223.3 353.5 223.2Q354.1 223 354.7 222.9Q355.4 222.8 355.9 222.8Q356.4 222.7 356.7 222.6Q356.9 222.5 356.9 222.1V222.1Q356.9 221.6 356.7 221.2Q356.5 220.8 356.1 220.6Q355.7 220.4 355.1 220.4Q354.5 220.4 354 220.6Q353.6 220.8 353.3 221.1Q353 221.4 352.9 221.7L351.5 221.2Q351.9 220.4 352.4 220Q353 219.5 353.7 219.3Q354.4 219.2 355 219.2Q355.5 219.2 356 219.3Q356.6 219.4 357.1 219.7Q357.6 220 358 220.6Q358.3 221.2 358.3 222.2V228H356.9V226.8H356.8Q356.7 227.1 356.4 227.4Q356 227.8 355.5 228Q355 228.2 354.2 228.2ZM354.5 227Q355.3 227 355.8 226.7Q356.3 226.4 356.6 225.9Q356.9 225.4 356.9 224.8V223.6Q356.8 223.7 356.5 223.8Q356.2 223.9 355.9 224Q355.5 224 355.2 224.1Q354.8 224.1 354.6 224.1Q354.1 224.2 353.7 224.3Q353.2 224.5 352.9 224.8Q352.7 225.1 352.7 225.6Q352.7 226 352.9 226.3Q353.1 226.6 353.6 226.8Q354 227 354.5 227ZM360.8 228V219.3H362.1V220.6H362.2Q362.5 219.9 363.1 219.5Q363.7 219.1 364.5 219.1Q364.7 219.1 364.9 219.1Q365.1 219.2 365.2 219.2V220.6Q365.1 220.6 364.9 220.5Q364.6 220.5 364.4 220.5Q363.7 220.5 363.2 220.8Q362.8 221 362.5 221.5Q362.2 221.9 362.2 222.5V228ZM368.1 224.9V223.1H368.4L372.1 219.3H373.9L369.8 223.4H369.7ZM366.8 228V216.4H368.2V228ZM372.3 228 369 223.7 370 222.7 374.1 228ZM375.4 230.8 376 226.4H377.6L376.4 230.8ZM387.7 228.2Q386.8 228.2 386.1 227.9Q385.4 227.7 384.9 227.1Q384.5 226.6 384.3 225.9L385.6 225.6Q385.8 226.3 386.3 226.6Q386.9 227 387.6 227Q388.6 227 389.1 226.6Q389.6 226.2 389.6 225.6Q389.6 225.2 389.3 224.9Q389 224.6 388.4 224.4L386.9 224.1Q385.7 223.8 385.1 223.2Q384.6 222.6 384.6 221.7Q384.6 221 385 220.4Q385.4 219.8 386.1 219.5Q386.9 219.2 387.8 219.2Q388.7 219.2 389.3 219.4Q390 219.7 390.4 220.2Q390.8 220.6 390.9 221.3L389.7 221.6Q389.5 221.1 389.1 220.7Q388.7 220.4 387.8 220.4Q387 220.4 386.5 220.7Q386 221.1 386 221.6Q386 222.1 386.3 222.4Q386.7 222.7 387.5 222.9L388.8 223.2Q390 223.5 390.5 224.1Q391.1 224.6 391.1 225.5Q391.1 226.3 390.7 226.9Q390.2 227.5 389.5 227.8Q388.7 228.2 387.7 228.2ZM393 231.2 393.4 229.9 393.5 230Q393.9 230.1 394.3 230Q394.6 230 394.9 229.7Q395.2 229.4 395.4 228.8L395.7 228L392.3 219.3H393.9L395.7 224.4Q396 225.3 396.2 226.1Q396.4 226.9 396.7 227.6H396.1Q396.4 226.9 396.6 226.1Q396.8 225.2 397.1 224.4L398.9 219.3H400.5L396.6 229.3Q396.4 230 396 230.4Q395.6 230.9 395.1 231.1Q394.6 231.3 394 231.3Q393.7 231.3 393.4 231.3Q393.1 231.2 393 231.2ZM405.1 228.2Q404.2 228.2 403.5 227.9Q402.8 227.7 402.4 227.1Q401.9 226.6 401.7 225.9L403.1 225.6Q403.3 226.3 403.8 226.6Q404.3 227 405.1 227Q406 227 406.5 226.6Q407.1 226.2 407.1 225.6Q407.1 225.2 406.8 224.9Q406.5 224.6 405.8 224.4L404.4 224.1Q403.2 223.8 402.6 223.2Q402 222.6 402 221.7Q402 221 402.4 220.4Q402.9 219.8 403.6 219.5Q404.3 219.2 405.2 219.2Q406.1 219.2 406.8 219.4Q407.4 219.7 407.8 220.2Q408.2 220.6 408.4 221.3L407.1 221.6Q406.9 221.1 406.5 220.7Q406.1 220.4 405.2 220.4Q404.5 220.4 403.9 220.7Q403.4 221.1 403.4 221.6Q403.4 222.1 403.8 222.4Q404.1 222.7 404.9 222.9L406.2 223.2Q407.4 223.5 408 224.1Q408.5 224.6 408.5 225.5Q408.5 226.3 408.1 226.9Q407.7 227.5 406.9 227.8Q406.1 228.2 405.1 228.2ZM414 219.3V220.5H409.5V219.3ZM410.8 217.2H412.2V225.7Q412.2 226.3 412.5 226.6Q412.7 226.9 413.2 226.9Q413.4 226.9 413.6 226.8Q413.8 226.8 414 226.8L414.3 228Q414 228 413.8 228.1Q413.5 228.1 413.2 228.1Q412.1 228.1 411.4 227.5Q410.8 226.9 410.8 225.8ZM419.5 228.2Q418.2 228.2 417.3 227.6Q416.4 227.1 415.9 226.1Q415.4 225 415.4 223.7Q415.4 222.4 415.9 221.3Q416.4 220.3 417.2 219.7Q418.1 219.2 419.3 219.2Q420 219.2 420.7 219.4Q421.4 219.6 421.9 220.1Q422.5 220.6 422.8 221.5Q423.1 222.3 423.1 223.5V224.1H416.3V222.9H422.4L421.7 223.4Q421.7 222.5 421.4 221.8Q421.2 221.2 420.6 220.8Q420.1 220.4 419.3 220.4Q418.5 220.4 418 220.8Q417.4 221.2 417.1 221.8Q416.8 222.4 416.8 223.1V223.9Q416.8 224.9 417.1 225.6Q417.5 226.2 418.1 226.6Q418.7 226.9 419.5 226.9Q420 226.9 420.4 226.8Q420.9 226.6 421.2 226.3Q421.5 226 421.6 225.6L423 226Q422.8 226.6 422.3 227.1Q421.8 227.6 421.1 227.9Q420.4 228.2 419.5 228.2ZM425.1 228V219.3H426.5L426.5 221.2H426.4Q426.6 220.5 427 220Q427.4 219.6 427.9 219.3Q428.4 219.1 429 219.1Q429.9 219.1 430.5 219.7Q431.1 220.3 431.3 221.2H431.1Q431.2 220.6 431.6 220.1Q432.1 219.6 432.7 219.4Q433.2 219.1 433.9 219.1Q434.7 219.1 435.3 219.4Q435.9 219.8 436.3 220.4Q436.7 221.1 436.7 222.1V228H435.3V222.1Q435.3 221.2 434.8 220.8Q434.2 220.4 433.5 220.4Q432.9 220.4 432.5 220.6Q432.1 220.9 431.8 221.3Q431.6 221.7 431.6 222.3V228H430.2V222Q430.2 221.3 429.7 220.8Q429.2 220.4 428.5 220.4Q428 220.4 427.5 220.6Q427.1 220.9 426.8 221.3Q426.5 221.8 426.5 222.5V228ZM440.2 228.1Q439.8 228.1 439.5 227.8Q439.2 227.5 439.2 227Q439.2 226.6 439.5 226.3Q439.8 226 440.2 226Q440.7 226 441 226.3Q441.3 226.6 441.3 227Q441.3 227.5 441 227.8Q440.7 228.1 440.2 228.1Z"/>
</svg>
